<svg width="163" height="120" viewBox="0 0 163 120" fill="none" xmlns="http://www.w3.org/2000/svg">
<g clip-path="url(#clip0_1_2271)">
<g opacity="0.7" filter="url(#filter0_f_1_2271)">
<circle cx="86" cy="60" r="20" fill="#E4AE33"/>
</g>
<g opacity="0.6" filter="url(#filter1_d_1_2271)">
<g style="mix-blend-mode:screen" opacity="0.1">
<g style="mix-blend-mode:screen">
<path d="M81.0414 105C81.0414 105 81.0136 105 80.9969 105C80.6908 105 80.4403 104.75 80.4403 104.444C80.4403 104.133 80.6908 103.889 80.9969 103.889H81.086C81.3977 103.889 81.6426 104.133 81.6481 104.439C81.6481 104.75 81.3977 104.994 81.0915 105C81.0915 105 81.0581 105 81.0414 105ZM75.3529 104.65C75.0468 104.611 74.8297 104.333 74.8687 104.033C74.9076 103.728 75.1859 103.511 75.4921 103.55C75.7982 103.589 76.0097 103.867 75.9707 104.172C75.9374 104.45 75.698 104.656 75.4197 104.656C75.4197 104.656 75.3752 104.656 75.3529 104.65ZM86.1121 104.161C86.0732 103.855 86.2902 103.578 86.5964 103.539C86.9025 103.5 87.1808 103.717 87.2198 104.022C87.2587 104.322 87.0416 104.6 86.7355 104.639C86.7355 104.639 86.691 104.639 86.6687 104.639C86.3904 104.639 86.1511 104.433 86.1121 104.156V104.161ZM69.7924 103.594C69.4918 103.517 69.3137 103.217 69.3917 102.922C69.4696 102.622 69.7702 102.444 70.0707 102.522C70.3657 102.594 70.5494 102.9 70.4715 103.194C70.4047 103.444 70.1765 103.617 69.9316 103.617C69.887 103.617 69.8369 103.617 69.7924 103.594ZM91.617 103.178C91.539 102.878 91.7171 102.572 92.0177 102.5C92.3127 102.422 92.6133 102.6 92.6912 102.9C92.7691 103.194 92.591 103.5 92.296 103.572C92.2459 103.589 92.2014 103.594 92.1569 103.594C91.9064 103.594 91.6782 103.428 91.617 103.178ZM64.4045 101.85C64.1206 101.733 63.9814 101.411 64.0928 101.128C64.2097 100.839 64.5325 100.7 64.8164 100.816C65.1058 100.928 65.2449 101.25 65.1336 101.533C65.0446 101.755 64.8331 101.889 64.6104 101.889C64.5436 101.889 64.4768 101.872 64.4045 101.85ZM96.9492 101.505C96.8324 101.216 96.9715 100.894 97.2609 100.783C97.5448 100.666 97.8676 100.805 97.9845 101.089C98.0959 101.378 97.9567 101.7 97.6728 101.816C97.606 101.839 97.5337 101.855 97.4669 101.855C97.2442 101.855 97.0383 101.722 96.9492 101.505ZM59.2893 99.433C59.0165 99.283 58.9219 98.9496 59.0722 98.6774C59.2169 98.4107 59.5564 98.3107 59.8236 98.4607C60.0963 98.6107 60.191 98.9441 60.0462 99.2163C59.9405 99.3997 59.7512 99.5052 59.5564 99.5052C59.4674 99.5052 59.3727 99.483 59.2893 99.433ZM102.025 99.1774C101.875 98.9107 101.975 98.5718 102.243 98.4218C102.51 98.2718 102.849 98.3718 103 98.6385C103.15 98.9052 103.05 99.2441 102.782 99.3941C102.693 99.4385 102.604 99.4663 102.51 99.4663C102.315 99.4663 102.126 99.3608 102.025 99.1774ZM54.5136 96.3995C54.2631 96.2161 54.2074 95.8717 54.3911 95.6216C54.5692 95.3772 54.9199 95.3216 55.1704 95.4994C55.4153 95.6828 55.4709 96.0272 55.2873 96.2772C55.1815 96.4272 55.0089 96.505 54.842 96.505C54.7251 96.505 54.6138 96.4717 54.5136 96.3995ZM106.768 96.2328C106.59 95.9828 106.64 95.6383 106.89 95.455C107.135 95.2772 107.486 95.3272 107.669 95.5772C107.848 95.8217 107.798 96.1717 107.547 96.355C107.447 96.4272 107.336 96.4606 107.219 96.4606C107.046 96.4606 106.879 96.3828 106.768 96.2328ZM50.1553 92.7937C49.9327 92.5826 49.9216 92.2325 50.1275 92.0103C50.339 91.7825 50.6897 91.7714 50.9179 91.9825C51.1405 92.1936 51.1517 92.5437 50.9402 92.7715C50.8344 92.8881 50.6841 92.9437 50.5338 92.9437C50.4003 92.9437 50.2611 92.8937 50.1553 92.7937ZM111.115 92.7215C110.903 92.4937 110.909 92.1437 111.137 91.9325C111.36 91.727 111.71 91.7325 111.922 91.9603C112.133 92.1825 112.122 92.5326 111.9 92.7437C111.794 92.8437 111.655 92.8937 111.516 92.8937C111.371 92.8937 111.221 92.8381 111.115 92.7215ZM46.2814 88.6768C46.0865 88.4434 46.1144 88.0934 46.3537 87.8989C46.5875 87.7045 46.9382 87.7323 47.133 87.9712C47.3333 88.2045 47.3 88.5545 47.0662 88.749C46.9604 88.8379 46.8324 88.8823 46.7099 88.8823C46.5485 88.8823 46.3871 88.8101 46.2814 88.6768ZM114.983 88.6934C114.744 88.499 114.711 88.149 114.911 87.9101C115.106 87.6767 115.456 87.6434 115.696 87.8378C115.93 88.0323 115.963 88.3823 115.768 88.6212C115.657 88.7545 115.501 88.8212 115.34 88.8212C115.211 88.8212 115.089 88.7823 114.983 88.6934ZM42.9473 84.1154C42.7859 83.8542 42.8582 83.5153 43.1198 83.3487C43.3759 83.182 43.721 83.2598 43.888 83.5209C44.0494 83.7765 43.977 84.1209 43.7154 84.2876C43.6208 84.3432 43.5206 84.3709 43.4148 84.3709C43.2312 84.3709 43.053 84.2821 42.9473 84.1154ZM118.323 84.2209C118.067 84.0543 117.989 83.7098 118.156 83.4542C118.317 83.1931 118.662 83.1153 118.924 83.282C119.18 83.4431 119.258 83.7876 119.091 84.0487C118.985 84.2154 118.807 84.3043 118.623 84.3043C118.523 84.3043 118.418 84.2765 118.323 84.2209ZM40.2144 79.1706C40.0808 78.8928 40.1977 78.565 40.476 78.4317C40.7543 78.3039 41.0882 78.4206 41.2218 78.6984C41.3498 78.9762 41.2329 79.3095 40.9546 79.4373C40.8767 79.4762 40.7988 79.4929 40.7153 79.4929C40.5094 79.4929 40.309 79.3762 40.2144 79.1706ZM121.078 79.3651C120.8 79.2317 120.683 78.8984 120.817 78.6261H120.811C120.945 78.3484 121.273 78.2261 121.551 78.3595C121.83 78.4873 121.952 78.8206 121.818 79.0984C121.724 79.2984 121.523 79.4151 121.317 79.4151C121.24 79.4151 121.156 79.3984 121.078 79.3651ZM38.1215 73.9259C38.0269 73.6314 38.1883 73.3203 38.4777 73.2203C38.7727 73.1258 39.0844 73.2869 39.1791 73.5758C39.2793 73.8703 39.1178 74.187 38.8228 74.2814C38.7672 74.2981 38.7115 74.3092 38.6503 74.3092C38.4165 74.3092 38.1994 74.1592 38.1215 73.9259ZM123.204 74.1981C122.909 74.1036 122.748 73.787 122.843 73.4981C122.937 73.2036 123.254 73.048 123.544 73.1425C123.839 73.2369 124 73.5481 123.9 73.8425C123.822 74.0759 123.605 74.2259 123.366 74.2259C123.31 74.2259 123.254 74.2148 123.199 74.1981H123.204ZM36.7133 68.4533C36.6521 68.1477 36.8524 67.8588 37.153 67.8033C37.4592 67.7421 37.7486 67.9422 37.8042 68.2422C37.8655 68.5478 37.6651 68.8367 37.3645 68.8922C37.3256 68.8922 37.2922 68.9033 37.2588 68.9033C36.9972 68.9033 36.7634 68.72 36.7133 68.4533ZM124.652 68.8089C124.351 68.7478 124.151 68.4589 124.212 68.1588C124.267 67.8533 124.557 67.6588 124.857 67.7144C125.164 67.7699 125.358 68.0644 125.303 68.3644C125.253 68.6311 125.019 68.8144 124.752 68.8144C124.718 68.8144 124.685 68.8144 124.652 68.8144V68.8089ZM36.0064 62.8474C35.9841 62.5418 36.2179 62.2751 36.5241 62.2585C36.8302 62.2362 37.0974 62.4696 37.1141 62.7807C37.1363 63.0863 36.9025 63.3474 36.5964 63.3697H36.5574C36.268 63.3697 36.0231 63.1419 36.0064 62.8474ZM125.414 63.2808C125.102 63.2585 124.869 62.9974 124.891 62.6918C124.908 62.3863 125.169 62.1474 125.475 62.1696C125.787 62.1862 126.021 62.4529 125.999 62.7585C125.976 63.053 125.731 63.2808 125.436 63.2808H125.409H125.414ZM36.5241 57.7915C36.2179 57.7693 35.9841 57.5082 36.0008 57.2026C36.0175 56.8915 36.2847 56.6637 36.5908 56.6803C36.897 56.697 37.1308 56.9637 37.1141 57.2693C37.0918 57.5637 36.8469 57.7915 36.5574 57.7915H36.5241ZM124.88 57.1804C124.863 56.8748 125.091 56.6081 125.403 56.5915C125.709 56.5692 125.971 56.8026 125.993 57.1082C126.01 57.4137 125.776 57.6804 125.47 57.6971C125.47 57.6971 125.447 57.6971 125.436 57.6971C125.141 57.6971 124.896 57.4693 124.88 57.1748V57.1804ZM37.1475 52.2467C36.8469 52.1856 36.6465 51.8967 36.7022 51.5967C36.7634 51.2911 37.0528 51.0967 37.3534 51.1522C37.654 51.2078 37.8543 51.5023 37.7987 51.8023C37.7486 52.069 37.5148 52.2523 37.2476 52.2523C37.2142 52.2523 37.1808 52.2523 37.1475 52.2523V52.2467ZM124.184 51.7134C124.128 51.4134 124.323 51.1245 124.629 51.0633C124.93 51.0078 125.219 51.2022 125.275 51.5078C125.331 51.8078 125.13 52.0967 124.83 52.1578C124.796 52.1578 124.763 52.169 124.724 52.169C124.462 52.169 124.229 51.9801 124.178 51.7134H124.184ZM38.4666 46.8186C38.1772 46.7242 38.0158 46.413 38.1104 46.1186C38.205 45.8297 38.5167 45.6686 38.8117 45.763C39.1011 45.8575 39.2626 46.1686 39.1679 46.4631C39.09 46.6964 38.8729 46.8464 38.6392 46.8464C38.5835 46.8464 38.5223 46.8353 38.4666 46.8186ZM122.804 46.3797C122.709 46.0908 122.865 45.7797 123.16 45.6797C123.449 45.5852 123.767 45.7463 123.861 46.0352C123.956 46.3297 123.8 46.6408 123.505 46.7353C123.449 46.7575 123.388 46.7631 123.332 46.7631C123.099 46.7631 122.882 46.6186 122.804 46.3797ZM40.4648 41.6072C40.1865 41.4739 40.0641 41.1405 40.1977 40.8627C40.3257 40.5849 40.6596 40.4682 40.9379 40.6016C41.2162 40.7294 41.3331 41.0627 41.2051 41.3405C41.1105 41.5405 40.9101 41.6572 40.6986 41.6572C40.6207 41.6572 40.5372 41.6405 40.4648 41.6072ZM120.761 41.2627C120.627 40.9849 120.744 40.6571 121.022 40.5238C121.301 40.396 121.635 40.5127 121.763 40.7905C121.896 41.0683 121.779 41.3961 121.501 41.5294C121.423 41.5683 121.34 41.585 121.262 41.585C121.056 41.585 120.855 41.4683 120.761 41.2627ZM43.0976 36.6847C42.8415 36.518 42.7636 36.1735 42.9306 35.918C43.092 35.6568 43.4371 35.579 43.6987 35.7457C43.9547 35.9068 44.0327 36.2513 43.8713 36.5124C43.7655 36.6791 43.5818 36.768 43.3981 36.768C43.298 36.768 43.1922 36.7402 43.0976 36.6847ZM118.089 36.4458C117.922 36.1902 118 35.8457 118.256 35.6791C118.518 35.5179 118.863 35.5902 119.024 35.8513C119.191 36.1069 119.113 36.4513 118.857 36.618C118.763 36.6791 118.657 36.7069 118.557 36.7069C118.373 36.7069 118.195 36.6124 118.089 36.4458ZM46.337 32.1288C46.0977 31.9344 46.0643 31.5844 46.2591 31.3455C46.4539 31.1121 46.8101 31.0788 47.0439 31.2732C47.2833 31.4677 47.3111 31.8177 47.1163 32.0566C47.005 32.19 46.8491 32.2566 46.6877 32.2566C46.5652 32.2566 46.4372 32.2177 46.337 32.1288ZM114.833 32.001C114.638 31.7621 114.672 31.4121 114.905 31.2177C115.145 31.0232 115.495 31.051 115.69 31.2899C115.885 31.5288 115.852 31.8733 115.618 32.0733C115.512 32.1566 115.39 32.2011 115.262 32.2011C115.1 32.2011 114.944 32.1288 114.833 32.001ZM50.1052 28.0175C49.8993 27.7897 49.9104 27.4397 50.1331 27.2285C50.3557 27.0174 50.7064 27.0285 50.9179 27.2563C51.1294 27.4785 51.1183 27.8286 50.8956 28.0397C50.7899 28.1397 50.6507 28.1897 50.5116 28.1897C50.3669 28.1897 50.2166 28.1286 50.1052 28.0175ZM111.048 27.9897C110.825 27.7786 110.814 27.4285 111.026 27.2008C111.232 26.9785 111.588 26.9674 111.811 27.1785C112.033 27.3897 112.044 27.7397 111.838 27.9619C111.727 28.0786 111.577 28.1397 111.427 28.1397C111.293 28.1397 111.154 28.0897 111.048 27.9897ZM54.3633 24.4006C54.1852 24.1506 54.2408 23.8061 54.4857 23.6228C54.7362 23.445 55.0813 23.495 55.265 23.745C55.4487 23.995 55.393 24.3395 55.1425 24.5228C55.0423 24.595 54.931 24.6284 54.8141 24.6284C54.6416 24.6284 54.4746 24.5506 54.3633 24.4006ZM106.796 24.4784C106.545 24.295 106.489 23.9506 106.673 23.7005C106.851 23.4505 107.202 23.395 107.452 23.5783C107.697 23.7561 107.753 24.1061 107.569 24.3561C107.464 24.5061 107.291 24.5839 107.118 24.5839C107.007 24.5839 106.896 24.5506 106.796 24.4784ZM59.0388 21.3448C58.8885 21.0726 58.9887 20.7337 59.2559 20.5892C59.523 20.4392 59.8626 20.5392 60.0128 20.8059C60.1631 21.0726 60.0629 21.4115 59.7958 21.5615C59.7123 21.606 59.6177 21.6282 59.5286 21.6282C59.3282 21.6282 59.139 21.5226 59.0388 21.3448ZM102.131 21.5226C101.864 21.3726 101.769 21.0337 101.914 20.767C102.064 20.5003 102.404 20.4003 102.671 20.5503C102.938 20.6948 103.039 21.0337 102.888 21.3059C102.788 21.4893 102.599 21.5893 102.404 21.5893C102.309 21.5893 102.22 21.5671 102.131 21.5226ZM64.0594 18.8947C63.9425 18.6113 64.0816 18.2835 64.3711 18.1724C64.6605 18.0613 64.9833 18.1946 65.0947 18.4835C65.2115 18.7669 65.0724 19.0891 64.7885 19.2058H64.783C64.7162 19.2336 64.6494 19.2447 64.577 19.2447C64.3599 19.2447 64.1484 19.1114 64.0649 18.8947H64.0594ZM97.1385 19.1725C96.8546 19.0614 96.7099 18.7391 96.8268 18.4502C96.9381 18.1669 97.2609 18.028 97.5504 18.1391C97.8342 18.2558 97.9734 18.578 97.8621 18.8613C97.773 19.078 97.5671 19.2114 97.3444 19.2114C97.2776 19.2114 97.2053 19.2003 97.1385 19.1725ZM69.3471 17.0946C69.2692 16.7946 69.4529 16.4945 69.7479 16.4168C70.0485 16.339 70.349 16.5223 70.4269 16.8168C70.5049 17.1168 70.3212 17.4168 70.0262 17.4946C69.9817 17.5057 69.9316 17.5113 69.887 17.5113C69.6366 17.5113 69.4139 17.3446 69.3471 17.0946ZM91.8841 17.4724C91.5891 17.3946 91.411 17.0946 91.4834 16.7946C91.5613 16.5001 91.8619 16.3223 92.1624 16.3945C92.4574 16.4723 92.6411 16.7723 92.5632 17.0724C92.4964 17.3224 92.2738 17.489 92.0233 17.489C91.9787 17.489 91.9342 17.4835 91.8841 17.4724ZM74.8241 15.9778C74.7852 15.6723 75.0023 15.3945 75.3084 15.3556C75.6145 15.3167 75.8873 15.5334 75.9318 15.8389C75.9652 16.1445 75.7537 16.4223 75.4475 16.4612H75.3752C75.0969 16.4612 74.8575 16.2556 74.8241 15.9778ZM86.4628 16.4501C86.1566 16.4112 85.9396 16.1334 85.9785 15.8278C86.0175 15.5223 86.2958 15.3056 86.6019 15.3445C86.9081 15.3834 87.1251 15.6612 87.0862 15.9667C87.0472 16.2445 86.8079 16.4501 86.5351 16.4501H86.4628ZM80.3958 15.5556C80.3958 15.25 80.6462 15 80.9524 15C81.2641 15 81.509 15.25 81.509 15.5556C81.509 15.8612 81.2641 16.1112 80.9579 16.1112C80.6462 16.1112 80.3958 15.8612 80.3958 15.5556Z" fill="#E4AE33"/>
</g>
</g>
<g style="mix-blend-mode:screen" opacity="0.2">
<g style="mix-blend-mode:screen">
<path d="M80.4417 100.155C80.4417 99.8443 80.6921 99.5998 80.9983 99.5998H81.0873C81.3935 99.5998 81.6439 99.8443 81.6439 100.15C81.6439 100.461 81.399 100.705 81.0873 100.711C81.0873 100.711 81.0539 100.711 81.0372 100.711C81.0372 100.711 81.0094 100.711 80.9927 100.711C80.6866 100.711 80.4361 100.461 80.4361 100.155H80.4417ZM75.3264 100.317C75.0203 100.272 74.8088 99.9943 74.8533 99.6887C74.8979 99.3831 75.1762 99.172 75.4823 99.2165C75.7884 99.2609 75.9999 99.5387 75.9554 99.8443C75.9164 100.122 75.6771 100.322 75.4044 100.322C75.4044 100.322 75.3543 100.322 75.3264 100.322V100.317ZM86.1302 99.8332C86.0912 99.5276 86.3027 99.2442 86.6033 99.2054C86.9094 99.1609 87.1933 99.372 87.2323 99.6776C87.2768 99.9776 87.0653 100.261 86.7647 100.305C86.7647 100.305 86.709 100.305 86.6868 100.305C86.4085 100.305 86.1747 100.105 86.1302 99.8276V99.8332ZM69.7659 99.1387C69.4709 99.0554 69.2984 98.7442 69.3819 98.4498C69.4654 98.1553 69.7771 97.9831 70.0721 98.072C70.3671 98.1553 70.5396 98.4609 70.4506 98.7553C70.3838 98.9998 70.1611 99.1609 69.9162 99.1609C69.8661 99.1609 69.816 99.1609 69.7659 99.1387ZM91.635 98.7331C91.546 98.4386 91.7185 98.1331 92.0135 98.0442C92.3085 97.9608 92.6146 98.1331 92.7037 98.4275C92.7872 98.722 92.6146 99.0276 92.3252 99.1109C92.2695 99.1276 92.2195 99.1387 92.1694 99.1387C91.9244 99.1387 91.7018 98.9776 91.635 98.7331ZM64.417 97.1886C64.1387 97.0663 64.0106 96.7385 64.1387 96.4552C64.2667 96.1774 64.5895 96.0496 64.8734 96.1774C65.1517 96.2996 65.2797 96.6274 65.1517 96.9108C65.0626 97.1163 64.8567 97.2386 64.6452 97.2386C64.5672 97.2386 64.4949 97.2219 64.417 97.1886ZM96.9228 96.8774C96.8003 96.5941 96.9228 96.2663 97.2066 96.1441H97.2011C97.4849 96.0163 97.8133 96.1441 97.9414 96.4219C98.0638 96.6996 97.9414 97.033 97.6631 97.1552C97.5851 97.1886 97.5072 97.2052 97.4349 97.2052C97.2233 97.2052 97.0174 97.083 96.9228 96.8774ZM59.4019 94.5162C59.1403 94.3551 59.0624 94.0106 59.2238 93.7495C59.3852 93.4939 59.7303 93.4161 59.9919 93.5772C60.2535 93.7383 60.3315 94.0828 60.1645 94.3439C60.0587 94.5106 59.8806 94.5995 59.6969 94.5995C59.5912 94.5995 59.491 94.5773 59.4019 94.5162ZM101.904 94.2995C101.737 94.0384 101.815 93.6995 102.077 93.5328C102.339 93.3717 102.684 93.4494 102.845 93.7106C103.006 93.9661 102.929 94.3106 102.673 94.4717C102.578 94.5328 102.478 94.5606 102.372 94.5606C102.188 94.5606 102.01 94.4662 101.904 94.2995ZM54.8044 91.1771C54.565 90.9771 54.5372 90.6271 54.732 90.3937C54.9324 90.1548 55.283 90.127 55.5168 90.3215C55.7506 90.5215 55.784 90.8715 55.5892 91.1104C55.4779 91.2382 55.3164 91.3049 55.1606 91.3049C55.0326 91.3049 54.9046 91.2604 54.8044 91.1771ZM106.474 91.0604C106.274 90.8215 106.307 90.477 106.541 90.277C106.775 90.077 107.125 90.1104 107.326 90.3437C107.521 90.577 107.493 90.9271 107.259 91.1271C107.153 91.2104 107.025 91.2549 106.903 91.2549C106.741 91.2549 106.585 91.1882 106.474 91.0604ZM50.7133 87.2324C50.5074 87.0046 50.5296 86.6546 50.7578 86.449C50.986 86.2435 51.3367 86.2601 51.5426 86.4879C51.7486 86.7157 51.7319 87.0657 51.5037 87.2713C51.3979 87.3657 51.2643 87.4157 51.1308 87.4157C50.9805 87.4157 50.8246 87.3546 50.7189 87.2324H50.7133ZM110.554 87.2157C110.326 87.0102 110.309 86.6601 110.515 86.4324C110.721 86.2046 111.072 86.1823 111.3 86.3879C111.528 86.5935 111.545 86.9435 111.344 87.1713C111.233 87.2935 111.077 87.3602 110.927 87.3602C110.793 87.3602 110.66 87.3102 110.554 87.2157ZM47.2067 82.7655C47.0341 82.5099 47.1009 82.1654 47.357 81.9932C47.6074 81.821 47.9525 81.8876 48.1251 82.1432C48.3032 82.3932 48.2308 82.7377 47.9804 82.9099C47.8802 82.9766 47.7744 83.0099 47.6687 83.0099C47.4906 83.0099 47.3124 82.921 47.2067 82.7655ZM114.066 82.8488C113.816 82.6766 113.743 82.3321 113.916 82.0765C114.089 81.821 114.434 81.7543 114.69 81.9265C114.946 82.0987 115.012 82.4432 114.84 82.6988C114.734 82.8599 114.556 82.9432 114.378 82.9432C114.272 82.9432 114.161 82.9099 114.066 82.8488ZM44.3513 77.854C44.2177 77.5818 44.3346 77.2484 44.6073 77.1096C44.8856 76.9762 45.2196 77.0929 45.3532 77.3651C45.4923 77.6429 45.3754 77.9763 45.0971 78.1096C45.0192 78.1485 44.9357 78.1652 44.8522 78.1652C44.6463 78.1652 44.4515 78.0541 44.3513 77.854ZM116.938 78.0374C116.666 77.8985 116.549 77.5707 116.682 77.2929C116.816 77.0151 117.15 76.904 117.428 77.0373C117.706 77.1707 117.818 77.504 117.684 77.7818C117.59 77.9763 117.389 78.0929 117.183 78.0929C117.1 78.0929 117.016 78.0707 116.938 78.0374ZM42.2139 72.5926C42.1193 72.3037 42.2807 71.987 42.5702 71.8926C42.8652 71.7981 43.1769 71.9592 43.2715 72.2481C43.3661 72.5426 43.2047 72.8537 42.9152 72.9537C42.854 72.9704 42.7984 72.976 42.7427 72.976C42.5034 72.976 42.2863 72.8315 42.2084 72.5926H42.2139ZM119.109 72.8704C118.82 72.776 118.658 72.4593 118.753 72.1704C118.848 71.8759 119.159 71.7203 119.454 71.8092C119.744 71.9037 119.905 72.2204 119.81 72.5093C119.738 72.7482 119.515 72.8982 119.282 72.8982C119.226 72.8982 119.17 72.8871 119.109 72.8704ZM40.8391 67.0867C40.7834 66.7867 40.9838 66.4978 41.29 66.4422C41.5905 66.3922 41.88 66.5922 41.9356 66.8923C41.9857 67.1978 41.7853 67.4867 41.4848 67.5367C41.4514 67.5367 41.418 67.5479 41.3846 67.5479C41.123 67.5479 40.8836 67.3589 40.8391 67.0867ZM120.534 67.4534C120.233 67.3978 120.028 67.1145 120.083 66.8089C120.139 66.5089 120.423 66.3033 120.729 66.3589C121.029 66.4089 121.23 66.6978 121.18 67.0034C121.135 67.2701 120.896 67.4645 120.629 67.4645C120.629 67.4645 120.567 67.4645 120.534 67.4534ZM40.2435 61.4419C40.2324 61.1363 40.4717 60.8752 40.7834 60.8697C41.0896 60.8585 41.3456 61.0975 41.3568 61.403C41.3679 61.7086 41.1285 61.9642 40.8224 61.9808H40.8001C40.5051 61.9808 40.2547 61.7419 40.2435 61.4419ZM121.185 61.8919C120.879 61.8808 120.634 61.6253 120.645 61.3197C120.656 61.0086 120.913 60.7697 121.224 60.7808C121.53 60.7919 121.77 61.0474 121.759 61.353C121.747 61.6586 121.503 61.8919 121.202 61.8919H121.185ZM40.9337 56.3805C40.6276 56.3472 40.405 56.0749 40.4383 55.7693C40.4662 55.4638 40.7445 55.2415 41.0506 55.2749C41.3512 55.3082 41.5738 55.5804 41.546 55.886C41.5126 56.1694 41.2733 56.3805 40.995 56.3805H40.9337ZM120.445 55.8027C120.417 55.4971 120.634 55.2249 120.94 55.1915C121.246 55.1582 121.525 55.3804 121.553 55.686C121.586 55.986 121.369 56.2638 121.063 56.2972H121.002C120.718 56.2972 120.478 56.086 120.445 55.8027ZM41.8243 50.8524C41.5293 50.7801 41.3456 50.4746 41.418 50.1801C41.4959 49.8801 41.7965 49.6967 42.0915 49.7745C42.392 49.8468 42.5757 50.1468 42.4978 50.4468C42.4366 50.6968 42.2084 50.869 41.9579 50.869C41.9134 50.869 41.8688 50.869 41.8243 50.8524ZM119.482 50.3635C119.404 50.069 119.588 49.7634 119.888 49.6912C120.183 49.6134 120.484 49.7968 120.562 50.0968C120.634 50.3912 120.456 50.6913 120.156 50.769C120.111 50.7801 120.066 50.7857 120.022 50.7857C119.771 50.7857 119.543 50.619 119.482 50.3635ZM43.483 45.502C43.1991 45.3854 43.06 45.0631 43.1769 44.7742C43.2937 44.4909 43.6166 44.352 43.906 44.4686C44.1899 44.5853 44.3235 44.9076 44.2121 45.1909C44.1231 45.4076 43.9116 45.5409 43.6945 45.5409C43.6221 45.5409 43.5553 45.5298 43.483 45.502ZM117.762 45.1187C117.645 44.8353 117.779 44.5075 118.068 44.3964C118.352 44.2797 118.675 44.4131 118.792 44.702C118.909 44.9853 118.77 45.3076 118.486 45.4243C118.419 45.452 118.347 45.4632 118.274 45.4632C118.057 45.4632 117.851 45.3354 117.762 45.1187ZM45.882 40.4351C45.6148 40.2795 45.5257 39.9406 45.676 39.6739C45.8319 39.4072 46.1714 39.3183 46.4386 39.4739C46.7002 39.6239 46.7948 39.9628 46.6389 40.2295C46.5388 40.4073 46.3495 40.5073 46.1603 40.5073C46.0656 40.5073 45.9655 40.4851 45.882 40.4351ZM115.324 40.1684C115.168 39.9017 115.257 39.5628 115.525 39.4072C115.792 39.2517 116.131 39.3406 116.287 39.6072C116.437 39.8739 116.348 40.2128 116.087 40.3684C115.998 40.4184 115.903 40.4406 115.808 40.4406C115.614 40.4406 115.43 40.3462 115.324 40.1684ZM48.96 35.7514C48.7151 35.5625 48.6706 35.2125 48.8598 34.9681C49.0491 34.7292 49.3997 34.6847 49.6446 34.8736C49.884 35.0625 49.9285 35.4125 49.7392 35.6514C49.6279 35.7959 49.4665 35.8681 49.2995 35.8681C49.1771 35.8681 49.0602 35.8292 48.96 35.7514ZM112.218 35.5959C112.029 35.357 112.074 35.007 112.313 34.818C112.552 34.6291 112.903 34.668 113.092 34.9125C113.281 35.1514 113.237 35.5014 112.992 35.6903C112.892 35.7737 112.775 35.8126 112.652 35.8126C112.485 35.8126 112.324 35.7403 112.213 35.5959H112.218ZM52.6559 31.5345C52.4388 31.3178 52.4444 30.9623 52.667 30.7511C52.8896 30.5345 53.2403 30.5456 53.4518 30.7622C53.6689 30.9845 53.6633 31.3345 53.4407 31.5512C53.3349 31.6512 53.1958 31.7067 53.0511 31.7067C52.9063 31.7067 52.7616 31.6512 52.6559 31.5345ZM108.511 31.5012C108.289 31.2901 108.283 30.9345 108.495 30.7122C108.706 30.4956 109.062 30.4844 109.285 30.7011C109.502 30.9123 109.508 31.2623 109.296 31.4845C109.19 31.6012 109.04 31.6567 108.895 31.6567C108.756 31.6567 108.617 31.6067 108.511 31.5012ZM56.8972 27.8732C56.7135 27.6232 56.7692 27.2787 57.0141 27.0954C57.2646 26.9176 57.6152 26.9676 57.7933 27.2176C57.977 27.4676 57.9214 27.8121 57.6765 27.9954C57.5763 28.0676 57.4649 28.101 57.3481 28.101C57.1811 28.101 57.0085 28.0232 56.9028 27.8732H56.8972ZM104.27 27.951C104.02 27.7732 103.969 27.4232 104.148 27.1787C104.326 26.9287 104.676 26.8731 104.921 27.0509C105.172 27.2342 105.227 27.5787 105.049 27.8287C104.938 27.9787 104.771 28.0565 104.598 28.0565C104.481 28.0565 104.37 28.0232 104.27 27.951ZM61.6005 24.8341C61.4558 24.5619 61.5616 24.223 61.8287 24.0785C62.1015 23.934 62.441 24.0341 62.5857 24.3063C62.7304 24.5785 62.6247 24.9119 62.3575 25.0619C62.274 25.1008 62.185 25.123 62.0959 25.123C61.8955 25.123 61.7007 25.0174 61.6005 24.8341ZM99.5778 25.023C99.305 24.8785 99.2049 24.5452 99.3496 24.273C99.4943 24.0007 99.8283 23.9007 100.101 24.0452C100.374 24.1841 100.474 24.523 100.329 24.7952C100.235 24.9841 100.04 25.0897 99.8394 25.0897C99.7503 25.0897 99.6613 25.0674 99.5778 25.023ZM66.6879 22.4728C66.5822 22.1839 66.7269 21.8673 67.0163 21.7617C67.3057 21.6561 67.623 21.8061 67.7288 22.0895C67.8345 22.3784 67.6898 22.7006 67.4004 22.8062C67.3391 22.8284 67.2723 22.8395 67.2111 22.8395C66.9829 22.8395 66.7658 22.7006 66.6879 22.4728ZM94.5238 22.7729C94.2344 22.6729 94.0841 22.3506 94.1898 22.0617C94.2956 21.7728 94.6129 21.6283 94.9023 21.7339C95.1917 21.8339 95.342 22.1562 95.2363 22.4451C95.1528 22.6673 94.9413 22.8118 94.713 22.8118C94.6518 22.8118 94.585 22.8006 94.5238 22.7729ZM72.0536 20.8505C71.9924 20.5449 72.1816 20.2505 72.4822 20.1894C72.7827 20.1227 73.0778 20.3172 73.139 20.6172C73.2058 20.9172 73.0165 21.2117 72.716 21.2728C72.677 21.2839 72.638 21.2894 72.5935 21.2894C72.3375 21.2894 72.1093 21.1061 72.0536 20.8505ZM89.2026 21.2561C88.9021 21.195 88.7073 20.9005 88.7741 20.6005C88.8353 20.3005 89.1303 20.106 89.4308 20.1727C89.7314 20.2338 89.9262 20.5283 89.8594 20.8283C89.8038 21.0894 89.5756 21.2672 89.3195 21.2672C89.2806 21.2672 89.2416 21.2672 89.2026 21.2561ZM77.5974 19.9894C77.5751 19.6838 77.8089 19.4171 78.115 19.3949C78.4212 19.3727 78.6828 19.606 78.705 19.9116C78.7273 20.2171 78.4991 20.4838 78.193 20.5061H78.1484C77.859 20.5061 77.6197 20.2838 77.5974 19.9894ZM83.7256 20.5005C83.4195 20.4783 83.1913 20.2116 83.208 19.906C83.2303 19.6004 83.4974 19.3671 83.8036 19.3893C84.1097 19.4115 84.3435 19.6782 84.3212 19.9838C84.2989 20.2727 84.054 20.5005 83.7646 20.5005H83.7312H83.7256Z" fill="#E4AE33"/>
</g>
</g>
<g style="mix-blend-mode:screen" opacity="0.4">
<g style="mix-blend-mode:screen">
<path d="M80.4402 95.8604C80.4402 95.5493 80.6906 95.3048 81.0023 95.3048H81.1081C81.4142 95.2993 81.6647 95.5493 81.6647 95.8549C81.6647 96.1605 81.4198 96.4105 81.1081 96.4105H81.0023C80.6906 96.416 80.4402 96.166 80.4402 95.8604ZM75.4363 95.9882C75.1301 95.9438 74.9242 95.6604 74.9687 95.3549C75.0188 95.0548 75.2971 94.8437 75.6032 94.8937C75.9038 94.9382 76.1153 95.2215 76.0708 95.5271C76.0263 95.7993 75.7869 95.9993 75.5198 95.9993C75.4919 95.9993 75.4641 95.9938 75.4363 95.9882ZM86.034 95.5104C85.9895 95.2048 86.1955 94.9215 86.5016 94.877C86.8022 94.827 87.0916 95.0326 87.1361 95.3382C87.1862 95.6438 86.9747 95.9271 86.6741 95.9771C86.6741 95.9771 86.6129 95.9771 86.5851 95.9771C86.3179 95.9771 86.0786 95.7771 86.034 95.5049V95.5104ZM69.9982 94.7215C69.7032 94.627 69.5418 94.3159 69.6364 94.027C69.7311 93.7325 70.0427 93.5714 70.3377 93.6658C70.6272 93.7547 70.7886 94.0659 70.6995 94.3603C70.6216 94.5992 70.4045 94.7492 70.1708 94.7492C70.1151 94.7492 70.0539 94.7381 69.9982 94.7215ZM91.4053 94.327C91.3107 94.0381 91.4721 93.7214 91.7671 93.6325C92.0565 93.5381 92.3682 93.6992 92.4629 93.9881C92.5575 94.2826 92.3961 94.5937 92.1066 94.6881C92.0454 94.7048 91.9897 94.7159 91.9341 94.7159C91.7003 94.7159 91.4777 94.5659 91.4053 94.327ZM64.8218 92.6325C64.5435 92.4936 64.4322 92.1602 64.5713 91.888C64.7049 91.6157 65.0389 91.4991 65.3172 91.6379C65.5899 91.7768 65.7068 92.1046 65.5676 92.3824C65.473 92.5769 65.2726 92.6936 65.0667 92.6936C64.9832 92.6936 64.8997 92.6713 64.8218 92.6325ZM96.5261 92.338C96.3869 92.0602 96.4982 91.7268 96.7766 91.5935C97.0493 91.4546 97.3833 91.5657 97.5224 91.838C97.6616 92.1158 97.5447 92.4491 97.2719 92.588C97.194 92.6269 97.1105 92.6436 97.027 92.6436C96.8211 92.6436 96.6263 92.5324 96.5261 92.338ZM60.0238 89.7767C59.7734 89.6045 59.7177 89.2545 59.8902 89.0044C60.0684 88.7544 60.4135 88.6933 60.6695 88.8711C60.92 89.0489 60.9756 89.3934 60.8031 89.6434C60.6918 89.799 60.5192 89.8823 60.3467 89.8823C60.2353 89.8823 60.124 89.8489 60.0238 89.7767ZM101.279 89.5878C101.101 89.3378 101.163 88.9878 101.413 88.81C101.664 88.6322 102.009 88.6933 102.187 88.9433C102.365 89.1934 102.309 89.5434 102.059 89.7212C101.959 89.7878 101.847 89.8212 101.736 89.8212C101.558 89.8212 101.391 89.7378 101.279 89.5878ZM55.7213 86.2321C55.4986 86.0154 55.4931 85.6654 55.7046 85.4487C55.9216 85.2264 56.2723 85.2209 56.495 85.432C56.712 85.6431 56.7232 85.9932 56.5061 86.2154C56.4003 86.3265 56.2556 86.3876 56.1053 86.3876C55.9662 86.3876 55.827 86.3376 55.7213 86.2321ZM105.565 86.1487C105.348 85.9265 105.354 85.5765 105.576 85.3598C105.799 85.1487 106.15 85.1542 106.361 85.3764C106.578 85.5931 106.573 85.9487 106.35 86.1598C106.244 86.2654 106.105 86.3154 105.966 86.3154C105.816 86.3154 105.671 86.2598 105.565 86.1487ZM52.0087 82.0763C51.825 81.8318 51.8696 81.4818 52.1145 81.2984C52.3594 81.1095 52.71 81.154 52.8993 81.3984C53.0885 81.6429 53.044 81.9929 52.7991 82.1763C52.6933 82.254 52.5764 82.2929 52.4596 82.2929C52.2926 82.2929 52.1256 82.2207 52.0198 82.0763H52.0087ZM109.278 82.0985C109.027 81.9151 108.983 81.5651 109.167 81.3206C109.356 81.0762 109.707 81.0317 109.951 81.2151C110.191 81.3984 110.241 81.7485 110.057 81.9929C109.946 82.1374 109.779 82.2151 109.612 82.2151C109.495 82.2151 109.378 82.1763 109.278 82.0985ZM48.9641 77.4037C48.8138 77.1371 48.914 76.7981 49.1867 76.6537C49.4539 76.5037 49.7934 76.6037 49.9437 76.8759C50.0884 77.1426 49.9882 77.4815 49.7211 77.6315C49.6376 77.676 49.5429 77.6982 49.4539 77.6982C49.2591 77.6982 49.0643 77.5926 48.9641 77.4037ZM112.328 77.5371C112.061 77.3926 111.961 77.0537 112.105 76.787C112.25 76.5148 112.59 76.4148 112.862 76.5592C113.13 76.7093 113.23 77.0426 113.085 77.3148C112.985 77.4982 112.796 77.6038 112.595 77.6038C112.506 77.6038 112.417 77.5815 112.328 77.5371ZM46.6708 72.3312C46.5707 72.0423 46.7154 71.7256 47.0048 71.6201C47.2942 71.5145 47.6171 71.6645 47.7228 71.9534C47.823 72.2423 47.6727 72.559 47.3833 72.6646C47.3221 72.6868 47.2609 72.6979 47.1941 72.6979C46.9658 72.6979 46.7543 72.559 46.6708 72.3312ZM114.655 72.559C114.365 72.459 114.209 72.1367 114.315 71.8478C114.421 71.5645 114.738 71.4145 115.028 71.5145C115.317 71.62 115.467 71.9367 115.362 72.2256C115.284 72.4534 115.067 72.5923 114.838 72.5923C114.777 72.5923 114.716 72.5812 114.655 72.559ZM45.1903 66.9586C45.129 66.6586 45.3239 66.3642 45.63 66.3086C45.9306 66.2531 46.22 66.4475 46.2812 66.7475C46.3369 67.0475 46.1421 67.342 45.8415 67.3976C45.8025 67.3976 45.7691 67.4087 45.7357 67.4087C45.4741 67.4087 45.2404 67.2253 45.1903 66.9586ZM116.18 67.2864C115.879 67.2309 115.679 66.9364 115.74 66.6364C115.796 66.3364 116.085 66.1364 116.391 66.1919C116.692 66.2531 116.892 66.542 116.831 66.8475C116.781 67.1087 116.547 67.2976 116.286 67.2976C116.252 67.2976 116.219 67.2976 116.18 67.2864ZM44.5502 61.425C44.539 61.1194 44.7784 60.8583 45.0901 60.8472C45.3962 60.836 45.6523 61.075 45.669 61.3805C45.6801 61.6861 45.4463 61.9472 45.1346 61.9583H45.1179C44.8173 61.9583 44.5724 61.725 44.5613 61.425H44.5502ZM116.881 61.8417C116.569 61.8306 116.33 61.575 116.341 61.2694C116.352 60.9638 116.608 60.7194 116.92 60.7305C117.226 60.7416 117.466 61.0027 117.454 61.3083C117.443 61.6083 117.198 61.8417 116.898 61.8417H116.881ZM45.2459 56.4747C44.9398 56.4358 44.7172 56.1635 44.7561 55.858C44.7895 55.5524 45.0623 55.3357 45.3684 55.369C45.6745 55.4024 45.8972 55.6802 45.8638 55.9857C45.8304 56.2691 45.5855 56.4747 45.3072 56.4747H45.2459ZM116.124 55.8746C116.091 55.5691 116.308 55.2913 116.614 55.2579C116.92 55.219 117.193 55.4413 117.232 55.7468C117.265 56.0469 117.048 56.3247 116.742 56.358C116.742 56.358 116.697 56.3636 116.675 56.3636C116.397 56.3636 116.158 56.1524 116.124 55.8746ZM46.1977 51.0688C45.9027 50.991 45.7302 50.6854 45.8081 50.3854C45.8916 50.0909 46.1977 49.9187 46.4927 49.9965C46.7877 50.0798 46.9658 50.3854 46.8824 50.6799C46.8156 50.9299 46.5929 51.091 46.348 51.091C46.2979 51.091 46.2478 51.091 46.1977 51.0688ZM115.083 50.5743C115 50.2743 115.172 49.9687 115.473 49.8909C115.768 49.8076 116.074 49.9798 116.158 50.2743C116.241 50.5688 116.063 50.8743 115.768 50.9577C115.718 50.9743 115.668 50.9799 115.618 50.9799C115.378 50.9799 115.15 50.8188 115.083 50.5743ZM47.9789 45.874C47.695 45.7518 47.5726 45.424 47.7006 45.1406C47.823 44.8628 48.1514 44.7351 48.4353 44.8628C48.7136 44.9906 48.836 45.3184 48.7136 45.5962C48.619 45.8018 48.4186 45.924 48.2071 45.924C48.1292 45.924 48.0512 45.9074 47.9789 45.874ZM113.241 45.4962C113.113 45.2184 113.241 44.8851 113.519 44.7628C113.798 44.6351 114.126 44.7573 114.254 45.0351C114.382 45.3184 114.254 45.6462 113.976 45.774C113.903 45.8073 113.825 45.824 113.747 45.824C113.536 45.824 113.336 45.7018 113.241 45.4962ZM50.5337 41.0182C50.2721 40.8515 50.1997 40.507 50.3667 40.2459C50.5337 39.9903 50.8788 39.9125 51.1404 40.0848C51.3964 40.2514 51.4688 40.5959 51.3018 40.8515C51.1961 41.0182 51.0179 41.1071 50.8343 41.1071C50.7285 41.1071 50.6283 41.0793 50.5337 41.0182ZM110.636 40.7626C110.469 40.507 110.541 40.1626 110.803 39.9959C111.059 39.8236 111.404 39.8959 111.571 40.157C111.738 40.4126 111.666 40.757 111.41 40.9237C111.315 40.9848 111.209 41.0126 111.104 41.0126C110.925 41.0126 110.747 40.9293 110.636 40.7626ZM53.7954 36.6012C53.5672 36.3957 53.5505 36.0456 53.7509 35.8178C53.9568 35.5845 54.3075 35.5678 54.5357 35.7678C54.7639 35.9734 54.7862 36.3234 54.5858 36.5568C54.4745 36.679 54.3186 36.7401 54.1683 36.7401C54.0347 36.7401 53.9012 36.6957 53.7954 36.6012ZM107.347 36.479C107.141 36.2512 107.157 35.8956 107.391 35.6956C107.619 35.49 107.97 35.5067 108.176 35.7345C108.382 35.9623 108.36 36.3179 108.131 36.5234C108.026 36.6179 107.892 36.6623 107.758 36.6623C107.608 36.6623 107.458 36.6012 107.347 36.479ZM57.6917 32.7288C57.4968 32.4954 57.5302 32.1454 57.7696 31.9454C58.0034 31.7509 58.354 31.7843 58.5544 32.0232C58.7492 32.2565 58.7158 32.6065 58.4765 32.8065C58.3763 32.8899 58.2483 32.9288 58.1258 32.9288C57.9644 32.9288 57.803 32.8621 57.6917 32.7288ZM103.439 32.7399C103.2 32.5454 103.166 32.1954 103.367 31.9565C103.556 31.7176 103.912 31.6843 104.146 31.8787C104.385 32.0732 104.419 32.4232 104.224 32.6621C104.113 32.7954 103.951 32.8621 103.795 32.8621C103.667 32.8621 103.545 32.8232 103.439 32.7399ZM62.1334 29.4952C61.9775 29.2285 62.061 28.8896 62.3226 28.7341C62.5898 28.573 62.9293 28.6618 63.0852 28.923C63.2466 29.1841 63.1575 29.5286 62.8959 29.6841C62.8069 29.7397 62.7067 29.7675 62.6121 29.7675C62.4228 29.7675 62.2391 29.6675 62.1334 29.4952ZM99.0085 29.6286C98.7469 29.473 98.6579 29.1341 98.8137 28.8674C98.9751 28.6063 99.3147 28.5174 99.5818 28.6785C99.8435 28.8341 99.9325 29.173 99.7767 29.4397C99.6709 29.6119 99.4872 29.7119 99.2924 29.7119C99.1978 29.7119 99.1032 29.6841 99.0085 29.6286ZM67.0092 26.9729C66.8924 26.6895 67.0315 26.3617 67.3154 26.2506C67.5992 26.1339 67.9276 26.2673 68.039 26.5506C68.1559 26.8395 68.0223 27.1618 67.7328 27.2784C67.666 27.3062 67.5937 27.3173 67.5269 27.3173C67.3042 27.3173 67.0983 27.1895 67.0092 26.9729ZM94.1605 27.234C93.8766 27.1229 93.7375 26.7951 93.8488 26.5117C93.9657 26.2284 94.2885 26.0895 94.5724 26.2061C94.8618 26.3173 94.9954 26.6451 94.8841 26.9284C94.795 27.1451 94.5891 27.2784 94.3664 27.2784C94.2997 27.2784 94.2273 27.2618 94.1605 27.234ZM72.2191 25.2227C72.1523 24.9227 72.336 24.6283 72.6365 24.556C72.9315 24.4838 73.2321 24.6672 73.3045 24.9672C73.3768 25.2672 73.1876 25.5672 72.8926 25.6394C72.848 25.6394 72.8035 25.6505 72.759 25.6505C72.5085 25.6505 72.2803 25.4783 72.2191 25.2227ZM88.9952 25.6117C88.6946 25.5394 88.5109 25.245 88.5777 24.945C88.6501 24.6449 88.9451 24.456 89.2457 24.5283H89.2512C89.5462 24.6005 89.7355 24.8949 89.6631 25.195C89.6019 25.4505 89.3737 25.6283 89.1232 25.6283C89.0787 25.6283 89.0397 25.6228 88.9952 25.6117ZM77.6404 24.2949C77.6126 23.9893 77.8408 23.7227 78.1469 23.7004C78.4531 23.6782 78.7258 23.906 78.7481 24.2116C78.7703 24.5171 78.5421 24.7838 78.236 24.8061C78.236 24.8061 78.2082 24.8061 78.1915 24.8061C77.902 24.8061 77.6627 24.5838 77.6404 24.2894V24.2949ZM83.6462 24.8005C83.3401 24.7783 83.1119 24.5116 83.1341 24.2005C83.1564 23.8949 83.4236 23.6671 83.7297 23.6893C84.0358 23.7115 84.264 23.9782 84.2418 24.2838C84.2195 24.5783 83.9746 24.8005 83.6852 24.8005H83.6462Z" fill="#E4AE33"/>
</g>
</g>
</g>
</g>
<defs>
<filter id="filter0_f_1_2271" x="39" y="13" width="94" height="94" filterUnits="userSpaceOnUse" color-interpolation-filters="sRGB">
<feFlood flood-opacity="0" result="BackgroundImageFix"/>
<feBlend mode="normal" in="SourceGraphic" in2="BackgroundImageFix" result="shape"/>
<feGaussianBlur stdDeviation="13.5" result="effect1_foregroundBlur_1_2271"/>
</filter>
<filter id="filter1_d_1_2271" x="26" y="9" width="110" height="110" filterUnits="userSpaceOnUse" color-interpolation-filters="sRGB">
<feFlood flood-opacity="0" result="BackgroundImageFix"/>
<feColorMatrix in="SourceAlpha" type="matrix" values="0 0 0 0 0 0 0 0 0 0 0 0 0 0 0 0 0 0 127 0" result="hardAlpha"/>
<feOffset dy="4"/>
<feGaussianBlur stdDeviation="5"/>
<feComposite in2="hardAlpha" operator="out"/>
<feColorMatrix type="matrix" values="0 0 0 0 0 0 0 0 0 0 0 0 0 0 0 0 0 0 0.15 0"/>
<feBlend mode="normal" in2="BackgroundImageFix" result="effect1_dropShadow_1_2271"/>
<feBlend mode="normal" in="SourceGraphic" in2="effect1_dropShadow_1_2271" result="shape"/>
</filter>
<clipPath id="clip0_1_2271">
<rect width="100" height="100" fill="white" transform="translate(31 10)"/>
</clipPath>
</defs>
</svg>
