<!-- Created with Inkscape (http://www.inkscape.org/) -->
<svg focusable="false" data-prefix="fas" data-icon="user-secret" class="svg-inline--fa fa-user-secret fa-w-14 " role="img" xmlns="http://www.w3.org/2000/svg" viewBox="0 0 32 32">
    <path fill="rgb(193, 195, 207)" d="M18.050 2.53c0 1.121-0.918 2.030-2.050 2.030s-2.050-0.909-2.050-2.030c0-1.121 0.918-2.030 2.050-2.030s2.050 0.909 2.050 2.030z"></path>
    <path fill="rgb(193, 195, 207)" d="M2.5 25.22h7.55c1.105 0 2-0.895 2-2v0-3.545h-1l-4.17-11.565h8l-0.97 19.235c-3.625 0.080-6.755 0.375-6.755 0.88v2.5c0 1.060 17.69 1.060 17.69 0v-2.5c0-0.5-3.13-0.8-6.755-0.88l-0.96-19.235h8l-4.185 11.565h-1v3.555c0 1.105 0.895 2 2 2v0h7.555c1.105 0 2-0.895 2-2v0-3.555h-1l-4.16-11.565h0.795q-11.135-6.61-22.27 0h0.79l-4.155 11.565h-1v3.555c0.006 1.1 0.899 1.99 2 1.99 0 0 0 0 0 0v0zM22.16 19.675l3.57-9.895 3.57 9.895zM6.27 9.78l3.57 9.895h-7.14z"></path>
</svg>