<!-- Created with Inkscape (http://www.inkscape.org/) -->
<svg focusable="false" data-prefix="fas" data-icon="user-secret" class="svg-inline--fa fa-user-secret fa-w-14 " role="img" xmlns="http://www.w3.org/2000/svg" viewBox="0 0 32 32">
    <path fill="rgb(193, 195, 207)" d="M22.096 22.286c0-1.146-0.949-2.095-2.095-2.095s-2.095 0.949-2.095 2.095 0.949 2.095 2.095 2.095 2.095-0.949 2.095-2.095zM9.524 9.714c0-1.146-0.949-2.095-2.095-2.095s-2.095 0.949-2.095 2.095 0.949 2.095 2.095 2.095 2.095-0.949 2.095-2.095zM26.286 22.286c0 3.47-2.816 6.286-6.286 6.286s-6.286-2.816-6.286-6.286 2.816-6.286 6.286-6.286 6.286 2.816 6.286 6.286zM24.715 4.476c0 0.229-0.082 0.442-0.213 0.622l-17.286 23.048c-0.197 0.262-0.507 0.426-0.835 0.426h-2.619c-0.573 0-1.048-0.475-1.048-1.048 0-0.229 0.082-0.442 0.213-0.622l17.286-23.048c0.197-0.262 0.507-0.426 0.835-0.426h2.619c0.573 0 1.048 0.475 1.048 1.048zM13.715 9.714c0 3.47-2.816 6.286-6.286 6.286s-6.286-2.816-6.286-6.286 2.816-6.286 6.286-6.286 6.286 2.816 6.286 6.286z"></path>
</svg>
