<!-- Created with Inkscape (http://www.inkscape.org/) -->
<svg focusable="false" data-prefix="fas" data-icon="user-secret" class="svg-inline--fa fa-user-secret fa-w-14 " role="img" xmlns="http://www.w3.org/2000/svg" viewBox="0 0 32 32">
    <path fill="rgb(193, 195, 207)" d="M25.023 6.977c-1.3-1.302-3.413-1.302-4.713 0l-4.31 4.31-4.31-4.31c-1.3-1.302-3.413-1.302-4.713 0-1.302 1.302-1.302 3.412 0 4.713l4.308 4.31-4.308 4.31c-1.302 1.302-1.302 3.412 0 4.713 0.65 0.652 1.503 0.977 2.357 0.977s1.707-0.325 2.357-0.977l4.31-4.31 4.31 4.31c0.65 0.652 1.503 0.977 2.357 0.977s1.707-0.325 2.357-0.977c1.302-1.302 1.302-3.412 0-4.713l-4.308-4.31 4.308-4.31c1.302-1.302 1.302-3.412 0-4.713z"></path>
</svg>