<svg width="121.91" height="121.92" xmlns="http://www.w3.org/2000/svg">
    <defs>
        <style>.cls-1{fill:#fff;}.cls-2{fill:#ff850b;}.cls-3{fill:#a37423;}</style>
    </defs>
    <g>
        <title>background</title>
        <rect fill="none" id="canvas_background" height="402" width="582" y="-1" x="-1"/>
    </g>
    <g>
        <title>Layer 1</title>
        <g id="Layer_2">
            <g id="Layer_1-2">
                <path id="svg_1"
                      d="m99,108.59l-9.69,-12.17a44.93,44.93 0 0 0 12,-14.59l0,0l13.76,7.17a60.35,60.35 0 0 1 -16.07,19.59z"
                      class="cls-1"/>
                <path id="svg_2"
                      d="m76.32,119.93l-3.89,-15.05a45.38,45.38 0 0 0 16.88,-8.46l9.69,12.17a60.94,60.94 0 0 1 -22.68,11.34z"
                      class="cls-2"/>
                <path id="svg_3"
                      d="m27.36,111.82a60.73,60.73 0 0 1 -20.65,-23.08l13.84,-7.09a45.22,45.22 0 0 0 15.45,17.23l0,0l-8.64,12.94z"
                      class="cls-1"/>
                <path id="svg_4"
                      d="m20.69,40l-13.8,-7.17a60.64,60.64 0 0 1 16.19,-19.63l9.69,12.17a44.83,44.83 0 0 0 -12.08,14.63z"
                      class="cls-2"/>
                <path id="svg_5"
                      d="m32.77,25.37l-9.69,-12.17a61.34,61.34 0 0 1 22.81,-11.3l3.88,15.1a45.49,45.49 0 0 0 -17,8.37z"
                      class="cls-1"/>
                <path id="svg_6"
                      d="m101.36,40.26a45.18,45.18 0 0 0 -15,-17l8.62,-12.94a60.94,60.94 0 0 1 20.22,22.86l-13.84,7.08z"
                      class="cls-2"/>
                <path id="svg_7"
                      d="m72.43,104.88a45.24,45.24 0 0 1 -18.85,0.89a46.06,46.06 0 0 1 -9.33,-2.6a45.45,45.45 0 0 1 -8.25,-4.29l0,0a45.35,45.35 0 0 1 -17.25,-54.63a40.91,40.91 0 0 1 1.94,-4.25a44.83,44.83 0 0 1 12.08,-14.63a45.39,45.39 0 0 1 70.4,52.29a42.55,42.55 0 0 1 -1.9,4.16l0,0a45.32,45.32 0 0 1 -28.84,23l0,0.06z"
                      class="cls-2"/>
                <path id="svg_8"
                      d="m121.8,64.52l-15.52,-0.91a45.3,45.3 0 0 0 -4.92,-23.35l13.84,-7.08a60.85,60.85 0 0 1 6.6,31.34z"
                      class="cls-1"/>
                <path id="svg_9"
                      d="m6.71,88.74a60.88,60.88 0 0 1 -6.6,-31.38l15.52,0.91a45.39,45.39 0 0 0 4.92,23.38l-13.84,7.09z"
                      class="cls-2"/>
                <path id="svg_10"
                      d="m115.07,89l-13.8,-7.17a42.55,42.55 0 0 0 1.9,-4.16a45.31,45.31 0 0 0 3.11,-14l15.52,0.91a60.57,60.57 0 0 1 -4.18,18.86c-0.76,1.87 -1.62,3.74 -2.55,5.56z"
                      class="cls-2"/>
                <path id="svg_11"
                      d="m15.63,58.27l-15.52,-0.91a60.74,60.74 0 0 1 4.18,-18.83q1.17,-2.94 2.6,-5.7l13.8,7.17a40.91,40.91 0 0 0 -1.94,4.25a44.93,44.93 0 0 0 -3.12,14.02z"
                      class="cls-1"/>
                <path id="svg_12"
                      d="m76.32,119.93a60.47,60.47 0 0 1 -25.32,1.16l2.6,-15.32a45.24,45.24 0 0 0 18.85,-0.89l3.87,15.05z"
                      class="cls-1"/>
                <path id="svg_13"
                      d="m68.72,16.22a45.06,45.06 0 0 0 -18.95,0.78l-3.88,-15.1a60.73,60.73 0 0 1 25.43,-1l-2.6,15.32z"
                      class="cls-2"/>
                <path id="svg_14"
                      d="m51,121.09a61.27,61.27 0 0 1 -23.62,-9.27l8.62,-12.94a45.45,45.45 0 0 0 8.26,4.29a46.06,46.06 0 0 0 9.33,2.6l-2.59,15.32z"
                      class="cls-2"/>
                <path id="svg_15"
                      d="m86.32,23.29a45.7,45.7 0 0 0 -17.6,-7.07l2.6,-15.33a61.59,61.59 0 0 1 23.62,9.46l-8.62,12.94z"
                      class="cls-1"/>
                <path id="svg_16"
                      d="m74.52,112.86a53.32,53.32 0 0 1 -22.28,1a54.09,54.09 0 0 1 -20.79,-8.13l0,0a53.6,53.6 0 0 1 -20.37,-64.51a52.16,52.16 0 0 1 2.29,-5a53.09,53.09 0 0 1 14.28,-17.31a53.73,53.73 0 0 1 20.09,-9.91a53.68,53.68 0 0 1 66.78,55.1a54,54 0 0 1 -3.68,16.6a53.34,53.34 0 0 1 -2.24,4.91l0,0a53.09,53.09 0 0 1 -14.14,17.24a53.76,53.76 0 0 1 -19.94,10.01z"
                      class="cls-2"/>
                <path id="svg_17" d="m100.61,76.65a42.64,42.64 0 1 0 -55.35,24a42.64,42.64 0 0 0 55.35,-24z"
                      class="cls-3"/>
            </g>
        </g>
    </g>
</svg>
