<svg xmlns="http://www.w3.org/2000/svg" viewBox="0 0 638.2 638.2">
    <defs>
        <style>
            .cls-1{isolation:isolate;}.cls-2{fill:#10242e;}.cls-3{fill:#ee1638;}.cls-4{fill:#15435e;}.cls-5{fill:#21af3f;}.cls-6{opacity:0.24;mix-blend-mode:multiply;}.cls-7{fill:#fff;}.cls-8{fill:#f3b02d;}
        </style>
    </defs>
    <g class="cls-1">
        <g id="Layer_2" data-name="Layer 2">
            <g id="Layer_1-2" data-name="Layer 1">
                <path class="cls-2"
                      d="M638.2,319.24a320.28,320.28,0,0,1-6,61.81C603.34,527.7,474,638.28,319,638.2S34.67,527.43,6,380.76A320.36,320.36,0,0,1,0,319C.08,142.72,143-.08,319.24,0S638.29,143,638.2,319.24Z"/>
                <path class="cls-3"
                      d="M224.74,148.93h0a193.14,193.14,0,0,0-27.25,18.32l-2.41-3-51.47-63.8A281.55,281.55,0,0,1,182.92,74l39.91,71.52Z"/>
                <path class="cls-4"
                      d="M254.69,135.47h0a192,192,0,0,0-29.94,13.45l-1.91-3.42L182.92,74a279.82,279.82,0,0,1,43.22-19.45l27.22,77.17Z"/>
                <path class="cls-5"
                      d="M366.43,42.74l-13.85,80.58-.68,4a194.65,194.65,0,0,0-32.7-2.76h0l0-85.81h0A280.08,280.08,0,0,1,366.43,42.74Z"/>
                <path class="cls-4"
                      d="M319.23,38.74l0,85.81a194.78,194.78,0,0,0-32.71,2.73l-.68-4L272,42.7A280.62,280.62,0,0,1,319.23,38.74Z"/>
                <path class="cls-3"
                      d="M286.48,127.28a191.27,191.27,0,0,0-31.79,8.19l-1.33-3.76L226.14,54.54A277.09,277.09,0,0,1,272,42.7l13.79,80.6Z"/>
                <path class="cls-4"
                      d="M197.48,167.26h0a194.48,194.48,0,0,0-23.81,22.63l-2.76-2.43-61.62-54.29a282.29,282.29,0,0,1,34.33-32.7l51.47,63.8Z"/>
                <path class="cls-4"
                      d="M153.94,216.24v0a195.19,195.19,0,0,0-15,29.29l-3.13-1.26L59.32,213.52a278.56,278.56,0,0,1,21.57-42.3l70,43.16Z"/>
                <path class="cls-3"
                      d="M173.65,189.9h0a195.54,195.54,0,0,0-19.69,26.33l-3-1.86-70-43.16a281.94,281.94,0,0,1,28.38-38l61.62,54.29Z"/>
                <path class="cls-3"
                      d="M138.93,245.55v0a193.42,193.42,0,0,0-9.8,31.43l-3.13-.67L45.25,258.88a276.29,276.29,0,0,1,14.07-45.36l76.48,30.77Z"/>
                <path class="cls-3"
                      d="M593,259.12,512.26,276.5l-3.14.67a192.92,192.92,0,0,0-9.78-31.45s0,0,0,0l3.14-1.26L579,213.75A277.56,277.56,0,0,1,593,259.12Z"/>
                <path class="cls-3"
                      d="M412.31,54.62,385,131.77l-1.32,3.75a192.7,192.7,0,0,0-31.78-8.21l.68-4,13.85-80.58A278.54,278.54,0,0,1,412.31,54.62Z"/>
                <path class="cls-4"
                      d="M579,213.75l-76.51,30.69-3.14,1.26a194.32,194.32,0,0,0-15-29.31h0l3-1.85,70.08-43.1A279.49,279.49,0,0,1,579,213.75Z"/>
                <path class="cls-3"
                      d="M599.47,319.23a283.53,283.53,0,0,1-2.14,34.56l-82.28-10.57-2.83-.37a198.55,198.55,0,0,0,1.44-23.66q0-4.67-.23-9.29v0l3-.13,82.69-3.48Q599.46,312.71,599.47,319.23Z"/>
                <path class="cls-4"
                      d="M599.16,306.26l-82.69,3.48-3,.13a194,194,0,0,0-4.3-32.67,0,0,0,0,0,0,0l3.14-.67L593,259.12A279.35,279.35,0,0,1,599.16,306.26Z"/>
                <path class="cls-4"
                      d="M455.51,74.12l-40,71.48L413.63,149a192.27,192.27,0,0,0-29.95-13.49h0l1.32-3.75,27.31-77.15A278.79,278.79,0,0,1,455.51,74.12Z"/>
                <path class="cls-3"
                      d="M557.45,171.43l-70.08,43.1-3,1.85A196.52,196.52,0,0,0,464.7,190h0l2.76-2.42,61.66-54.23A281.08,281.08,0,0,1,557.45,171.43Z"/>
                <path class="cls-3"
                      d="M494.81,100.64l-51.54,63.75-2.4,3A193.31,193.31,0,0,0,413.64,149h0l1.91-3.42,40-71.48A281.26,281.26,0,0,1,494.81,100.64Z"/>
                <path class="cls-4"
                      d="M529.1,133.37,467.44,187.6,464.68,190a197.44,197.44,0,0,0-23.79-22.65h0l2.4-3,51.54-63.75A280.67,280.67,0,0,1,529.1,133.37Z"/>
                <path class="cls-3"
                      d="M144.9,405.78l-2.26,1.14L68.23,444.38a275.25,275.25,0,0,1-17.59-44.22h0v0l79.53-24.32,2.55-.78s0,0,0,0A191.76,191.76,0,0,0,144.9,405.78Z"/>
                <path class="cls-4"
                      d="M342.85,598.48q-11.81,1-23.87,1t-23.87-1l7.16-83.6.16-1.92c5.47.47,11,.71,16.59.72s11.12-.24,16.58-.7h0l.16,1.91Z"/>
                <path class="cls-4"
                      d="M513.54,521.09l0,0a280.8,280.8,0,0,1-37,30l-46.85-69.39L428.48,480a194,194,0,0,0,25.69-20.89h0l1.53,1.59Z"/>
                <path class="cls-3"
                      d="M476.5,551.14h0a278.83,278.83,0,0,1-41.59,23.36l-34.5-76.4-.83-1.83A193.82,193.82,0,0,0,428.47,480h0l1.17,1.74Z"/>
                <path class="cls-4"
                      d="M129.12,277v0a194,194,0,0,0-4.33,32.67l-3-.13L39.05,306a280.15,280.15,0,0,1,6.2-47.13L126,276.33Z"/>
                <path class="cls-4"
                      d="M434.9,574.51a278,278,0,0,1-45,15.94l-21.1-81.19-.49-1.89a191.35,191.35,0,0,0,31.26-11.09h0l.83,1.83Z"/>
                <path class="cls-3"
                      d="M545,485.23h0a281.18,281.18,0,0,1-31.41,35.85L455.71,460.7l-1.53-1.59A195.84,195.84,0,0,0,476,434.19v0l1.87,1.39Z"/>
                <path class="cls-4"
                      d="M597.33,353.79a277.84,277.84,0,0,1-9.82,46.57L508,376l-2.56-.79a191.51,191.51,0,0,0,6.77-32.3,0,0,0,0,1,0,0l2.83.37Z"/>
                <path class="cls-3"
                      d="M587.51,400.36v0a278.21,278.21,0,0,1-17.63,44.22l-74.38-37.54-2.24-1.13a193.08,193.08,0,0,0,12.18-30.73,0,0,0,0,1,0,0L508,376Z"/>
                <path class="cls-4"
                      d="M569.87,444.61v0a278.71,278.71,0,0,1-24.9,40.6l-67.1-49.67L476,434.17A194.29,194.29,0,0,0,493.23,406l0,0,2.24,1.13Z"/>
                <path class="cls-3"
                      d="M389.9,590.45a279.6,279.6,0,0,1-47,8l-7.08-83.61-.16-1.91a191.77,191.77,0,0,0,32.7-5.59l.49,1.89Z"/>
                <path class="cls-3"
                      d="M302.43,512.94l-.16,1.92-7.16,83.6q-12.08-1-23.86-3.06t-23.19-5l21.17-81.17.49-1.89A191.75,191.75,0,0,0,302.43,512.94Z"/>
                <path class="cls-4"
                      d="M162.12,434l-1.89,1.39L93.1,485a278,278,0,0,1-24.86-40.62,0,0,0,0,1,0,0l74.41-37.46,2.26-1.14v0A194.13,194.13,0,0,0,162.12,434Z"/>
                <path class="cls-4"
                      d="M132.71,375l-2.55.78L50.63,400.13a279.54,279.54,0,0,1-9.79-46.58l82.3-10.5,2.83-.37a0,0,0,0,1,0,0A192.87,192.87,0,0,0,132.71,375Z"/>
                <path class="cls-3"
                      d="M126,342.68l-2.83.37-82.3,10.5A284,284,0,0,1,38.74,319q0-6.51.31-13l82.69,3.56,3,.13v0c-.16,3.07-.23,6.17-.23,9.28A194.75,194.75,0,0,0,126,342.68Z"/>
                <path class="cls-3"
                      d="M183.89,459l-1.53,1.6-57.88,60.35A280.46,280.46,0,0,1,93.11,485h0l67.13-49.6,1.89-1.39s0,0,0,0A194.76,194.76,0,0,0,183.89,459Z"/>
                <path class="cls-4"
                      d="M269.72,507.32l-.49,1.89-21.17,81.17a275.57,275.57,0,0,1-45-16h0L237.63,498h0l.84-1.83A192.41,192.41,0,0,0,269.72,507.32Z"/>
                <path class="cls-4"
                      d="M209.58,479.92l-1.17,1.73L161.49,551a280.68,280.68,0,0,1-37-30.06h0l57.88-60.35,1.53-1.6v0A196.34,196.34,0,0,0,209.58,479.92Z"/>
                <path class="cls-3"
                      d="M238.48,496.21l-.84,1.83h0L203.08,574.4A278,278,0,0,1,161.51,551h0l46.92-69.34,1.17-1.73h0A193.82,193.82,0,0,0,238.48,496.21Z"/>
                <g class="cls-6">
                    <circle class="cls-4" cx="319.1" cy="320.68" r="226.81"
                            transform="translate(-133.3 319.56) rotate(-45)"/>
                </g>
                <path class="cls-3"
                      d="M319,552.29a231.61,231.61,0,0,1,.1-463.21h.12a231.61,231.61,0,0,1-.11,463.21Zm.11-456.62c-124,0-225,100.89-225,224.91A225.29,225.29,0,0,0,319,545.7h.1c124,0,225-100.89,225-224.91A225.27,225.27,0,0,0,319.2,95.67Z"/>
                <path class="cls-3"
                      d="M319,550.37a229.67,229.67,0,1,1,162.45-67.2A228.21,228.21,0,0,1,319,550.37Zm.22-456.62c-125.14-.06-227,101.7-227,226.83s101.69,227,226.83,227,227-101.7,227-226.83S444.34,93.81,319.21,93.75Z"/>
                <path class="cls-7"
                      d="M290.23,55c-1.13.09-1.79.77-1.65,2.38l.2,2.43-3.36.29-.19-2.2c-.31-3.62,1.33-5.85,4.82-6.15s5.48,1.62,5.79,5.24c.64,7.45-6.88,10.66-5.86,14.58l6.73-.57.28,3.23-10.29.88-.24-2.78c-.57-6.67,6.39-8.37,5.83-14.9C292.12,55.37,291.36,54.88,290.23,55Z"/>
                <path class="cls-7"
                      d="M297.83,57c-.32-3.82,1.25-6,4.94-6.35,3.49-.3,5.48,1.62,5.79,5.24l.05.58-3.37.29-.06-.81c-.14-1.62-.91-2.17-2-2.07s-1.92.78-1.73,2.95l.35,4.14a3.4,3.4,0,0,1,3.13-2.29c2.62-.22,4.1,1.51,4.39,4.84l.35,4.14c.31,3.62-1.43,5.86-4.92,6.16s-5.58-1.61-5.89-5.24Zm4.22,7.43.35,4.08c.14,1.61.9,2.14,2,2s1.8-.74,1.66-2.36l-.35-4.08c-.14-1.61-.9-2.17-2-2.07S301.92,62.81,302.05,64.43Z"/>
                <path class="cls-7"
                      d="M254.48,64.15c-.51-2-1.34-2.34-2.44-2.05s-1.64,1.06-1.23,2.63l.37,1.42-3.27.85-.31-1.19c-.92-3.52.32-6,3.71-6.87s5.68.66,6.6,4.18l.15.57c.61,2.35.24,4-1.25,5.15,1.93.31,3.05,1.76,3.63,4l.45,1.73c.91,3.52-.32,6-3.72,6.87s-5.67-.67-6.59-4.19l-.47-1.82,3.26-.85.54,2c.4,1.57,1.25,2,2.35,1.7s1.65-1,1.15-3L257,73.64c-.54-2-1.42-2.62-3-2.21l-1.17.3L252,68.59l1.36-.35c1.28-.34,1.92-1.11,1.46-2.87Z"/>
                <path class="cls-7"
                      d="M206.47,81.4c-.85-1.86-1.73-2.07-2.76-1.61s-1.43,1.33-.76,2.81l.6,1.33-3.08,1.39L200,84.2c-1.5-3.32-.7-6,2.5-7.4s5.71-.3,7.21,3l.24.53c1,2.22.92,3.93-.35,5.29,1.94,0,3.29,1.22,4.24,3.32l.74,1.63c1.49,3.31.69,6-2.5,7.4s-5.71.3-7.21-3l-.77-1.72,3.07-1.39.87,1.92c.67,1.48,1.58,1.75,2.61,1.28s1.46-1.26.63-3.1l-.73-1.62c-.87-1.93-1.85-2.34-3.33-1.67l-1.09.49-1.34-3,1.27-.57c1.22-.55,1.72-1.42,1-3.08Z"/>
                <path class="cls-7"
                      d="M218.88,86.55l.87,1.92c.67,1.48,1.56,1.72,2.6,1.25s1.44-1.29.77-2.77l-2.06-4.56c-.67-1.48-1.57-1.75-2.61-1.28s-1.43,1.33-.76,2.81l.28.62-3.08,1.39-4.84-12.28,8.58-3.88,1.34,3-5.65,2.55,2,5.07a3.4,3.4,0,0,1,2.16-2.8c2.39-1.08,4.37,0,5.75,3.1l2.08,4.62c1.5,3.31.7,6-2.49,7.4s-5.71.3-7.21-3l-.78-1.72Z"/>
                <path class="cls-7"
                      d="M161.69,104.78c2.28-1.54,2.05-3,1.65-4.56l2-1.35,12.73,18.83-3,2-9.71-14.36-2.28,1.54Z"/>
                <path class="cls-7"
                      d="M174.92,96c-.95.63-1.19,1.55-.28,2.89l1.36,2-2.8,1.89L172,101c-2-3-1.7-5.75,1.21-7.72S178.75,92,180.79,95c4.18,6.18-.81,12.65,2,15.58l5.6-3.78,1.82,2.69-8.56,5.78L180.08,113c-3.75-5.54,1.5-10.42-2.18-15.86C176.76,95.42,175.86,95.36,174.92,96Z"/>
                <path class="cls-7"
                      d="M131.43,131.12c-.82.79-.91,1.73.21,2.9l1.69,1.76-2.44,2.33-1.53-1.59c-2.51-2.63-2.64-5.38-.11-7.81s5.29-2.19,7.8.44c5.17,5.39,1.34,12.61,4.6,15l4.87-4.68,2.25,2.35L141.32,149l-1.93-2c-4.63-4.82-.29-10.52-4.83-15.26C133.15,130.24,132.25,130.33,131.43,131.12Z"/>
                <path class="cls-7"
                      d="M154.48,136.73c-2.6,2.49-5.47,2.36-8-.26l-1.24-1.29c-1.5-1.57-2.2-3.24-1.68-5-1.65.45-3.22-.16-4.77-1.78l-.49-.51c-2.52-2.63-2.53-5.5.08-8s5.47-2.36,8,.26l.5.52c1.55,1.62,2.06,3.24,1.57,4.83,1.73-.44,3.37.33,4.88,1.9l1.23,1.29C157.08,131.36,157.09,134.23,154.48,136.73Zm-12.62-10.26c1.26,1.31,2.28,1.15,3.12.34s1.05-1.81-.21-3.12l-.88-.92c-1.41-1.48-2.43-1.27-3.25-.48s-1.07,1.79.35,3.27Zm10.38,7.91c.82-.78,1-1.77-.32-3.24l-1.46-1.53c-1.24-1.28-2.32-1.33-3.23-.45s-.92,2,.32,3.24l1.46,1.53C150.4,135.38,151.42,135.17,152.24,134.38Z"/>
                <path class="cls-7"
                      d="M106.9,154.38l2.51,1.86,12.64,15.88L119.93,175l-12.56-15.79-4.23,5.72L100.53,163Z"/>
                <path class="cls-7"
                      d="M79.52,204.41c-.51,1-.28,1.93,1.17,2.66l2.17,1.1-1.52,3-2-1c-3.25-1.64-4.28-4.19-2.71-7.33s4.26-3.82,7.51-2.18c6.66,3.36,5.46,11.45,9.33,12.64l3-6,2.9,1.47L94.8,218l-2.5-1.26c-6-3-3.77-9.83-9.63-12.78C80.85,203,80,203.4,79.52,204.41Z"/>
                <path class="cls-7"
                      d="M100.26,194.57c3.42,1.73,4.49,4.23,2.82,7.53-1.58,3.14-4.25,3.83-7.5,2.19l-.52-.27,1.52-3,.73.36c1.44.73,2.32.38,2.83-.64s.34-2-1.6-3l-3.71-1.86a3.39,3.39,0,0,1,.3,3.86c-1.18,2.35-3.43,2.7-6.42,1.2L85,199c-3.25-1.64-4.24-4.29-2.66-7.42s4.29-3.91,7.54-2.27Zm-8.54-.3-3.65-1.84c-1.45-.73-2.29-.36-2.81.66S85,195,86.4,195.73l3.66,1.85c1.45.73,2.32.37,2.83-.65S93.17,195,91.72,194.27Z"/>
                <path class="cls-7"
                      d="M62,251.31c.81-2.64-.28-3.62-1.58-4.59l.7-2.3,21.74,6.66-1,3.41-16.58-5.08-.8,2.64Z"/>
                <path class="cls-7"
                      d="M85.86,242.11c-1,3.45-3.62,4.74-7.1,3.67l-1.7-.52c-2.08-.64-3.51-1.75-3.89-3.5-1.21,1.19-2.88,1.43-5,.77l-.69-.21c-3.47-1.06-4.88-3.57-3.83-7s3.63-4.73,7.1-3.67l.69.21c2.14.66,3.38,1.82,3.73,3.45,1.29-1.23,3.1-1.36,5.18-.72l1.7.52C85.51,236.17,86.92,238.67,85.86,242.11Zm-16-2.8c1.74.54,2.55-.1,2.89-1.22s0-2.09-1.71-2.63l-1.21-.37c-2-.6-2.74.08-3.07,1.17s-.06,2.09,1.89,2.68Zm12.92,1.85c.33-1.08,0-2-1.87-2.67l-2-.62c-1.71-.52-2.67,0-3,1.17s.15,2.16,1.86,2.68l2,.62C81.64,242.93,82.43,242.25,82.76,241.16Z"/>
                <path class="cls-7"
                      d="M55,290.81c-.15,1.13.37,1.91,2,2.12l2.42.31L59,296.59l-2.19-.28c-3.61-.46-5.44-2.53-5-6s2.73-5,6.34-4.55c7.41.94,9,9,13,8.8l.86-6.7,3.22.41L73.92,298.5l-2.77-.35c-6.64-.85-6.84-8-13.34-8.85C55.78,289,55.14,289.68,55,290.81Z"/>
                <path class="cls-7"
                      d="M56.63,278.05c-.15,1.13.38,1.92,2,2.12l2.41.31-.43,3.35-2.19-.28c-3.6-.46-5.44-2.53-5-6s2.74-5,6.34-4.56c7.41.95,9,9,13,8.8l.86-6.7,3.22.41-1.31,10.25-2.77-.36c-6.64-.85-6.83-8-13.34-8.84C57.41,276.29,56.77,276.93,56.63,278.05Z"/>
                <path class="cls-7"
                      d="M62.85,378.28c-2,.43-2.39,1.24-2.15,2.36s1,1.67,2.58,1.33l1.42-.3.72,3.3-1.21.26c-3.56.76-6-.58-6.71-4s.91-5.64,4.46-6.41l.58-.12c2.38-.51,4-.07,5.09,1.46.39-1.91,1.89-3,4.14-3.45l1.75-.38c3.55-.76,6,.58,6.71,4s-.91,5.65-4.47,6.41l-1.84.4-.71-3.3,2.06-.44c1.59-.35,2-1.17,1.8-2.29s-.93-1.69-2.89-1.26l-1.75.37c-2.06.45-2.67,1.31-2.33,2.9l.25,1.17-3.17.68-.3-1.36c-.28-1.3-1-2-2.8-1.59Z"/>
                <path class="cls-7"
                      d="M58.45,370.85c-.58-2.69-2-3-3.62-3.24l-.51-2.34,22.22-4.8.76,3.5-16.95,3.65.58,2.7Z"/>
                <path class="cls-7"
                      d="M67.59,323.59c3.83-.16,6,1.5,6.14,5.2.15,3.5-1.85,5.4-5.48,5.56l-.59,0L67.52,331l.81,0c1.62-.07,2.21-.81,2.16-2s-.7-1.95-2.87-1.86l-4.16.18a3.37,3.37,0,0,1,2.15,3.22c.12,2.63-1.68,4-5,4.18l-4.15.18c-3.63.15-5.79-1.67-5.94-5.18s1.85-5.5,5.48-5.66Zm-7.6,3.9-4.09.17c-1.62.07-2.17.81-2.12,1.94s.66,1.83,2.28,1.76l4.09-.17c1.62-.07,2.21-.81,2.16-1.95S61.61,327.42,60,327.49Z"/>
                <path class="cls-7"
                      d="M76.48,427.94c-1-2.56-2.49-2.63-4.12-2.58l-.89-2.23,21.09-8.47L93.89,418,77.8,424.44l1,2.56Z"/>
                <path class="cls-7"
                      d="M84.42,414.18l-16.67-.3-1.45-3.61,14.25-5.73L79.92,403l3-1.21.63,1.57,3.83-1.54,1.33,3.31-3.83,1.54L87.43,413Zm-2.54-6.33L74.07,411l9.13.15Z"/>
                <path class="cls-7"
                      d="M95.85,463.07c.59,1,1.5,1.25,2.88.4l2.07-1.28,1.77,2.88-1.88,1.16c-3.09,1.9-5.82,1.45-7.66-1.54s-1-5.63,2.08-7.53c6.36-3.92,12.61,1.35,15.65-1.33l-3.54-5.75,2.77-1.7,5.41,8.79L113,458.63c-5.69,3.51-10.34-1.94-15.93,1.5C95.35,461.2,95.25,462.1,95.85,463.07Z"/>
                <path class="cls-7"
                      d="M94.1,455.52c-3.1,1.91-5.87,1.37-7.71-1.61s-1.07-5.71,2-7.62l10.07-6.2c3.09-1.9,5.87-1.36,7.71,1.62s1.07,5.71-2,7.62Zm8.39-9.35c1.38-.85,1.53-1.79.93-2.75s-1.49-1.26-2.88-.4l-10.45,6.43c-1.38.85-1.53,1.78-.93,2.75s1.49,1.25,2.88.4Z"/>
                <path class="cls-7"
                      d="M122.35,497.76c-1.83-2.07-3.23-1.66-4.74-1.06L116,494.89l17.06-15,2.36,2.69-13,11.45,1.83,2.07Z"/>
                <path class="cls-7"
                      d="M156.9,526.19c-1.28,1.59-1.07,2.47-.19,3.18s1.83.69,2.85-.58l.92-1.13,2.62,2.12-.77,1c-2.29,2.83-5,3.3-7.73,1.1s-2.84-5-.56-7.79l.37-.45c1.53-1.9,3.09-2.6,4.88-2.07-.9-1.73-.39-3.49,1.06-5.29l1.12-1.39c2.28-2.83,5-3.3,7.73-1.1s2.84,5,.55,7.79L168.57,523l-2.63-2.12,1.33-1.65c1-1.26.85-2.19,0-2.9s-1.79-.74-3.06.83l-1.12,1.39c-1.32,1.64-1.26,2.7,0,3.72l.93.75-2,2.53-1.08-.88c-1-.83-2-.89-3.18.53Z"/>
                <path class="cls-7"
                      d="M146.9,518.11c-1.29,1.59-1.08,2.47-.2,3.19s1.83.68,2.85-.58l.92-1.14,2.63,2.12-.78,1c-2.28,2.83-5,3.3-7.73,1.1s-2.84-5-.56-7.79l.37-.45c1.53-1.9,3.1-2.6,4.89-2.07-.9-1.73-.4-3.49,1.05-5.29l1.12-1.39c2.28-2.83,5-3.3,7.73-1.1s2.84,5,.56,7.79l-1.19,1.47-2.62-2.12,1.32-1.64c1-1.27.85-2.2,0-2.91s-1.79-.73-3,.83l-1.12,1.39c-1.33,1.65-1.26,2.7,0,3.72l.93.75-2,2.53-1.08-.88c-1-.83-2-.89-3.18.53Z"/>
                <path class="cls-7"
                      d="M198.71,556.27c-2.41-1.35-3.59-.49-4.82.58l-2.1-1.17,11.08-19.85,3.12,1.74-8.45,15.14,2.41,1.35Z"/>
                <path class="cls-7"
                      d="M191,548.75c-1.87,3.34-4.41,4.3-7.64,2.5-3.06-1.71-3.64-4.41-1.86-7.59l.28-.51,2.95,1.65-.39.71c-.8,1.41-.47,2.3.52,2.85s2,.43,3.09-1.47l2-3.63a3.39,3.39,0,0,1-3.87.15c-2.29-1.29-2.56-3.55-.92-6.47l2-3.63c1.78-3.18,4.46-4,7.52-2.35s3.72,4.46,1.95,7.64Zm.67-8.52,2-3.57c.8-1.42.46-2.28-.53-2.83s-1.91-.39-2.7,1l-2,3.58c-.79,1.41-.47,2.3.52,2.85S190.85,541.65,191.64,540.23Z"/>
                <path class="cls-7"
                      d="M236.79,571.76c1.07.38,2,0,2.49-1.5l.81-2.29,3.18,1.12-.73,2.08c-1.21,3.43-3.62,4.79-6.93,3.62s-4.33-3.73-3.12-7.16c2.49-7,10.66-6.88,11.35-10.87l-6.37-2.25,1.09-3.06,9.73,3.44-.93,2.63c-2.23,6.31-9.27,5-11.46,11.17C235.22,570.62,235.71,571.38,236.79,571.76Z"/>
                <path class="cls-7"
                      d="M234.51,557.83l-11.24,12.32-3.68-1.3,5.12-14.48-1.59-.56,1.08-3.06,1.59.56,1.37-3.89,3.37,1.19-1.37,3.89,6.43,2.27Zm-6.43-2.27-2.81,7.93,6.14-6.75Z"/>
                <path class="cls-7"
                      d="M277.43,568.91l.36-2.08c.27-1.6-.33-2.29-1.45-2.49s-1.93.27-2.2,1.87l-.84,4.93c-.28,1.6.32,2.33,1.44,2.52s1.93-.3,2.2-1.9l.12-.67,3.33.57-2.87,12.88L268.24,583l.55-3.2,6.11,1,1.2-5.29a3.42,3.42,0,0,1-3.35,1.1c-2.59-.44-3.59-2.49-3-5.79l.86-5c.62-3.59,2.76-5.33,6.21-4.73s4.9,2.94,4.29,6.53l-.32,1.85Z"/>
                <path class="cls-7" d="M329.67,584.91c-2.76,0-3.38,1.34-3.93,2.86h-2.41V565h3.57v17.34h2.76Z"/>
                <path class="cls-7"
                      d="M319.31,582.32c0,3.63-1.92,5.71-5.43,5.71s-5.42-2.08-5.42-5.71V570.5c0-3.64,1.92-5.72,5.42-5.72s5.42,2.08,5.42,5.72Zm-3.58-12.05c0-1.62-.71-2.24-1.85-2.24s-1.85.62-1.85,2.24v12.27c0,1.63.72,2.24,1.85,2.24s1.85-.61,1.85-2.24Z"/>
                <path class="cls-7"
                      d="M370.46,579.87c1.12-.19,1.72-.92,1.44-2.52l-.41-2.4,3.33-.57.37,2.17c.62,3.59-.82,5.94-4.28,6.54s-5.6-1.15-6.21-4.74c-1.27-7.36,5.95-11.2,4.6-15l-6.66,1.14-.54-3.2,10.17-1.74.47,2.75c1.14,6.59-5.65,8.88-4.54,15.34C368.54,579.64,369.34,580.06,370.46,579.87Z"/>
                <path class="cls-7"
                      d="M355.71,579.76c.35,2,1.15,2.44,2.26,2.25s1.72-.92,1.45-2.52l-.25-1.44,3.33-.57.21,1.21c.61,3.59-.83,5.94-4.28,6.54s-5.6-1.15-6.22-4.73l-.1-.58c-.41-2.4.1-4,1.68-5-1.89-.47-2.88-2-3.27-4.28l-.31-1.76c-.61-3.59.83-5.94,4.29-6.54s5.6,1.15,6.21,4.74l.32,1.85-3.33.57-.35-2.08c-.28-1.6-1.09-2.09-2.21-1.89s-1.73.85-1.39,2.84l.3,1.76c.36,2.08,1.2,2.73,2.8,2.45l1.18-.2.55,3.2-1.38.23c-1.31.23-2,.94-1.7,2.74Z"/>
                <path class="cls-7"
                      d="M400.22,551c3.39-1.2,5.95.1,7.17,3.53l.59,1.69c.73,2,.68,3.86-.5,5.2,1.68.27,2.86,1.47,3.61,3.58l.23.68c1.22,3.43,0,6-3.36,7.24s-6-.09-7.17-3.52l-.23-.67c-.75-2.12-.56-3.81.55-5.06-1.76-.3-2.94-1.68-3.66-3.73l-.6-1.69C395.64,554.85,396.82,552.24,400.22,551Zm1.08,3.07c-1.08.38-1.69,1.18-1.05,3.09l.71,2c.59,1.68,1.56,2.17,2.75,1.74s1.64-1.4,1-3.09l-.7-2C403.38,553.94,402.37,553.72,401.3,554.1Zm6.19,11.48c-.6-1.72-1.6-2-2.7-1.59s-1.7,1.22-1.1,2.93l.43,1.19c.68,1.93,1.69,2.16,2.76,1.78s1.71-1.19,1-3.12Z"/>
                <path class="cls-7"
                      d="M451.68,546.44c1,1.78,1.89,1.92,2.88,1.36s1.32-1.44.53-2.86l-.71-1.27,2.94-1.65.61,1.08c1.77,3.17,1.2,5.87-1.87,7.58s-5.66.79-7.43-2.39l-.29-.51c-1.19-2.12-1.25-3.84-.1-5.3-1.93.19-3.38-.93-4.51-3l-.87-1.56c-1.77-3.17-1.2-5.87,1.86-7.58s5.67-.79,7.44,2.39l.92,1.64-2.95,1.65-1-1.84c-.79-1.42-1.71-1.61-2.71-1.05s-1.34,1.38-.36,3.14l.87,1.56c1,1.84,2,2.17,3.45,1.38l1-.59,1.58,2.84-1.22.68c-1.16.65-1.58,1.55-.7,3.14Z"/>
                <path class="cls-7"
                      d="M446.78,549.32c1.78,3.18,1.12,5.93-1.94,7.64s-5.75.83-7.52-2.35l-5.77-10.32c-1.77-3.17-1.11-5.92,1.95-7.63s5.74-.83,7.52,2.35Zm-9-8.77c-.79-1.42-1.72-1.61-2.71-1s-1.31,1.44-.52,2.85l6,10.72c.79,1.42,1.71,1.61,2.7,1s1.32-1.44.53-2.86Z"/>
                <path class="cls-7"
                      d="M494.31,519.34c-2.14,1.73-1.79,3.15-1.26,4.69l-1.87,1.51L476.9,507.85l2.78-2.24,10.89,13.49,2.15-1.73Z"/>
                <path class="cls-7"
                      d="M484.31,527.42c-2.15,1.73-1.79,3.15-1.26,4.69l-1.87,1.51L466.9,515.94l2.78-2.25,10.89,13.49,2.15-1.73Z"/>
                <path class="cls-7"
                      d="M519.84,489.32c1.54,1.35,2.42,1.18,3.17.32s.76-1.79-.46-2.87l-1.09-1,2.23-2.54.92.82c2.73,2.4,3.09,5.14.78,7.77s-5.08,2.63-7.81.22l-.44-.38c-1.83-1.61-2.46-3.2-1.86-5-1.76.83-3.5.25-5.23-1.27l-1.35-1.19c-2.73-2.4-3.08-5.14-.77-7.77s5.08-2.62,7.81-.22l1.42,1.24-2.24,2.54-1.58-1.4c-1.22-1.07-2.16-.94-2.91-.09s-.8,1.76.71,3.09l1.34,1.18c1.58,1.39,2.64,1.37,3.71.15l.8-.9,2.43,2.15-.92,1c-.88,1-1,2,.39,3.2Z"/>
                <path class="cls-7"
                      d="M516,493.59c2.88,2.53,3.28,5.22.84,8s-5.08,2.62-7.81.22l-.44-.38,2.23-2.54.61.54c1.22,1.07,2.15.94,2.9.09s.85-1.9-.78-3.33l-3.12-2.75a3.42,3.42,0,0,1-.68,3.82c-1.74,2-4,1.75-6.52-.46l-3.12-2.75c-2.73-2.4-3-5.21-.71-7.85s5.15-2.69,7.88-.29Zm-8.18-2.45-3.07-2.7c-1.22-1.07-2.13-.92-2.88-.07s-.79,1.78.43,2.85l3.07,2.7c1.22,1.08,2.16.95,2.91.09S509,492.22,507.81,491.14Z"/>
                <path class="cls-7"
                      d="M551,449.56c-1.45,2.35-.64,3.58.37,4.85l-1.26,2-19.36-11.91,1.88-3,14.76,9.09,1.45-2.35Z"/>
                <path class="cls-7"
                      d="M539.49,463.07c1.74,1.07,2.59.75,3.18-.22s.45-1.9-.93-2.75l-1.25-.76,1.77-2.88,1,.65c3.1,1.9,3.92,4.54,2.08,7.53s-4.56,3.44-7.66,1.54l-.5-.31c-2.07-1.28-3-2.74-2.67-4.58-1.6,1.11-3.41.83-5.37-.37l-1.53-.94c-3.09-1.91-3.91-4.54-2.07-7.53s4.56-3.45,7.66-1.54l1.6,1-1.77,2.87-1.8-1.1c-1.38-.85-2.28-.57-2.88.4s-.5,1.86,1.22,2.92l1.52.94c1.8,1.1,2.84.9,3.69-.48l.63-1,2.76,1.7-.73,1.19c-.7,1.13-.63,2.13.92,3.08Z"/>
                <path class="cls-7"
                      d="M568.1,412.18c.43-1.05.12-1.95-1.38-2.55l-2.26-.91,1.26-3.13,2,.82c3.38,1.36,4.63,3.82,3.32,7.07s-3.91,4.17-7.29,2.81c-6.93-2.78-6.41-10.94-10.37-11.79l-2.52,6.26-3-1.21,3.84-9.58,2.59,1c6.21,2.5,4.6,9.48,10.68,11.92C566.9,413.69,567.68,413.24,568.1,412.18Z"/>
                <path class="cls-7" d="M564.12,430.11,561.23,429,545,416.76l1.33-3.32,16.13,12.12,2.65-6.6,3,1.21Z"/>
                <path class="cls-7"
                      d="M577.44,369.17c3.75.81,5.41,3,4.63,6.58-.74,3.43-3.15,4.77-6.71,4l-.57-.12.71-3.3.79.17c1.59.34,2.34-.23,2.58-1.34s-.18-2.06-2.31-2.52l-4.06-.88a3.41,3.41,0,0,1,1.27,3.66c-.56,2.57-2.64,3.49-5.92,2.78l-4.06-.87c-3.55-.77-5.18-3.08-4.44-6.51s3.17-4.86,6.73-4.1ZM569.1,371l-4-.86c-1.59-.34-2.31.23-2.55,1.34s.18,1.93,1.77,2.28l4,.86c1.59.34,2.34-.23,2.58-1.34S570.69,371.37,569.1,371Z"/>
                <path class="cls-7"
                      d="M582.22,325.49c2,.09,2.63-.6,2.67-1.74s-.54-1.87-2.16-1.94l-1.46-.06.15-3.38,1.23.06c3.63.15,5.63,2.05,5.48,5.56s-2.3,5.23-5.93,5.08l-.59,0c-2.43-.1-3.92-.94-4.56-2.69-.86,1.75-2.57,2.39-4.88,2.29l-1.78-.07c-3.63-.16-5.63-2.06-5.48-5.57s2.3-5.23,5.93-5.08l1.88.08-.14,3.38-2.11-.09c-1.62-.07-2.27.62-2.32,1.75s.48,1.88,2.49,2l1.78.08c2.11.09,2.92-.59,3-2.22l.05-1.2,3.24.14-.06,1.39c0,1.33.5,2.17,2.31,2.25Z"/>
                <path class="cls-7"
                      d="M572.24,330.2l15.07,7.14-.17,3.9-15.34-.65-.07,1.68-3.25-.13.07-1.69-4.12-.18.15-3.56,4.12.17.29-6.81ZM572,337l8.4.35-8.25-3.89Z"/>
                <path class="cls-7"
                      d="M581.5,275c.35,2.74,1.75,3.18,3.33,3.54l.31,2.38-22.55,2.89-.45-3.54L579.33,278,579,275.3Z"/>
                <path class="cls-7" d="M587,295.59l-3.09.39-20.13-2.72-.45-3.54,20,2.71-.91-7.06,3.23-.41Z"/>
                <path class="cls-7"
                      d="M571.31,235.16c-.33-1.08-1.13-1.59-2.68-1.11l-2.33.71-1-3.23,2.11-.64c3.48-1.07,6,.06,7,3.41s-.43,5.7-3.91,6.77c-7.14,2.19-11.86-4.48-15.48-2.66l2,6.46-3.1.95-3-9.88,2.67-.81c6.4-2,9.53,4.48,15.8,2.56C571.33,237.09,571.64,236.25,571.31,235.16Z"/>
                <path class="cls-7"
                      d="M562.63,249.17l-2,.61c-1.55.48-1.9,1.33-1.57,2.42s1.1,1.6,2.66,1.12l4.78-1.46c1.55-.48,1.93-1.34,1.6-2.43s-1.13-1.59-2.69-1.11l-.65.2-1-3.23,12.8-3.24,2.76,9-3.11.95-1.82-5.92-5.27,1.3a3.41,3.41,0,0,1,2.5,2.5c.77,2.51-.61,4.33-3.81,5.31L563,256.67c-3.48,1.07-6-.06-7-3.42s.42-5.7,3.9-6.76l1.8-.55Z"/>
                <path class="cls-7"
                      d="M556.39,199.5c-.51-1-1.39-1.37-2.83-.64L551.38,200l-1.52-3,2-1c3.25-1.64,5.92-.95,7.5,2.18s.54,5.69-2.7,7.32c-6.67,3.37-12.46-2.41-15.72,0l3.05,6-2.9,1.46-4.65-9.22,2.49-1.25c6-3,10.15,2.81,16-.15C556.73,201.4,556.9,200.52,556.39,199.5Z"/>
                <path class="cls-7"
                      d="M528.94,156c-.68-.92-1.6-1.12-2.91-.16l-1.95,1.45-2-2.72,1.77-1.31c2.93-2.16,5.68-1.94,7.76.88s1.5,5.52-1.42,7.68c-6,4.45-12.68-.27-15.49,2.65l4,5.43-2.61,1.94-6.14-8.3,2.24-1.66c5.38-4,10.48,1.05,15.75-2.85C529.59,157.78,529.61,156.88,528.94,156Z"/>
                <path class="cls-7"
                      d="M534.89,163.8c1.64,2.22,3.08,1.92,4.64,1.46l1.43,1.93-18.28,13.52-2.12-2.87,13.94-10.32-1.64-2.21Z"/>
                <path class="cls-7"
                      d="M490.05,132.05l15.31-6.6,2.81,2.7-10.62,11.09,1.22,1.16-2.25,2.35-1.22-1.17-2.85,3-2.58-2.47,2.85-3-4.92-4.72Zm4.92,4.72,5.82-6.08-8.38,3.63Z"/>
                <path class="cls-7"
                      d="M459.35,93.06c2.29,1.55,3.55.79,4.86-.17l2,1.35-12.73,18.83-3-2,9.71-14.36-2.29-1.55Z"/>
                <path class="cls-7"
                      d="M468.91,116.68c-2.15,3.18-4.77,3.92-7.83,1.84-2.91-2-3.25-4.7-1.22-7.71l.33-.49,2.8,1.89-.46.68c-.9,1.34-.66,2.25.28,2.89s2,.6,3.21-1.21l2.33-3.44a3.4,3.4,0,0,1-3.88-.19c-2.17-1.47-2.24-3.75-.37-6.52l2.33-3.44c2-3,4.79-3.66,7.69-1.7s3.33,4.76,1.29,7.77Zm1.38-8.43,2.29-3.39c.91-1.34.65-2.23-.3-2.86s-1.86-.56-2.77.79l-2.29,3.39c-.91,1.34-.66,2.26.28,2.89S469.38,109.6,470.29,108.25Z"/>
                <path class="cls-7"
                      d="M418.23,72.22c2.51,1.13,3.62.18,4.75-1l2.2,1-9.37,20.72-3.25-1.48,7.14-15.8-2.52-1.13Z"/>
                <path class="cls-7"
                      d="M425.7,89.35l-.87,1.92c-.66,1.48-.25,2.31.78,2.78s1.93.23,2.6-1.25l2.06-4.56c.66-1.48.27-2.33-.77-2.8s-1.94-.2-2.61,1.28l-.28.62L423.54,86l6-11.75,8.58,3.88-1.34,3-5.65-2.55-2.5,4.82a3.4,3.4,0,0,1,3.52-.23c2.4,1.08,2.85,3.32,1.47,6.37l-2.08,4.61c-1.5,3.32-4,4.46-7.21,3s-4-4.09-2.5-7.4l.78-1.72Z"/>
                <path class="cls-7"
                      d="M380.83,63.35c.52-2,0-2.69-1.14-3s-1.94.13-2.35,1.7L377,63.49l-3.27-.85.31-1.2c.92-3.52,3.2-5.07,6.6-4.19s4.63,3.35,3.71,6.87l-.15.57c-.61,2.36-1.75,3.64-3.6,3.9,1.54,1.2,1.8,3,1.22,5.24l-.45,1.73c-.91,3.52-3.2,5.07-6.59,4.19s-4.63-3.35-3.72-6.87l.48-1.82,3.27.85-.53,2c-.41,1.57.12,2.35,1.22,2.64s1.93-.07,2.44-2l.45-1.73c.53-2,0-3-1.53-3.39l-1.17-.3.82-3.14,1.35.35c1.29.34,2.22,0,2.68-1.78Z"/>
                <path class="cls-7"
                      d="M392.33,63.66c-1.1-.29-1.95.13-2.36,1.7l-.61,2.36-3.27-.85.56-2.14c.91-3.52,3.2-5.07,6.59-4.19s4.63,3.35,3.71,6.87c-1.88,7.23-10,7.76-10.38,11.79l6.54,1.71-.82,3.14-10-2.6.7-2.7c1.68-6.48,8.81-5.76,10.47-12.11C394,64.66,393.43,63.94,392.33,63.66Z"/>
                <path class="cls-7"
                      d="M336,56.42c.3-3.62,2.39-5.53,5.88-5.23s5.23,2.53,4.92,6.15l-1,11.78c-.31,3.62-2.39,5.53-5.89,5.23s-5.22-2.53-4.92-6.15Zm2.53,12.31c-.13,1.62.53,2.29,1.66,2.38s1.9-.45,2-2.07l1-12.23c.14-1.62-.52-2.29-1.65-2.39s-1.9.46-2,2.08Z"/>
                <circle class="cls-2" cx="319.23" cy="319.13" r="195.41"/>
                <path class="cls-8"
                      d="M319.29,338.38a19.25,19.25,0,0,1,0-38.49h0a19.25,19.25,0,0,1,0,38.49Zm0-34.49h0a15.25,15.25,0,0,0,0,30.49h0a15.25,15.25,0,0,0,0-30.49Z"/>
                <path class="cls-8"
                      d="M319,217.74h-.58l-5.75,47.93a158.72,158.72,0,0,0,.66,36.19h10.88l.13-1a158.15,158.15,0,0,0,.48-35.2Z"/>
                <circle class="cls-8" cx="318.71" cy="217.74" r="8.55"/>
                <path class="cls-8"
                      d="M318.45,420.34H319l5.79-47.93a158.25,158.25,0,0,0-.64-36.2H313.3l-.12,1a158.75,158.75,0,0,0-.52,35.2Z"/>
                <circle class="cls-8" cx="318.74" cy="420.34" r="8.55"/>
                <path class="cls-8"
                      d="M217.43,318.76v.59l47.93,5.75a158.81,158.81,0,0,0,36.2-.66h0V313.55l-1-.12a158.83,158.83,0,0,0-35.21-.49Z"/>
                <circle class="cls-8" cx="217.43" cy="319.06" r="8.55"/>
                <path class="cls-8"
                      d="M420,319.32v-.58L372.1,313a158.24,158.24,0,0,0-36.2.64h0v10.88l1,.12a158.84,158.84,0,0,0,35.21.52Z"/>
                <circle class="cls-8" cx="420.02" cy="319.03" r="8.55"/>
            </g>
        </g>
    </g>
</svg>
