<svg height="24" viewBox="0 0 137 24" width="137" xmlns="http://www.w3.org/2000/svg"><path d="m3.39 13.365v3.128h2.434c.927.058 1.737-.58 1.795-1.506v-.058c0-.985-.81-1.622-2.027-1.622zm0-4.577v2.78h2.26c.81.059 1.564-.52 1.622-1.332v-.116c0-.753-.753-1.332-1.796-1.332zm-3.244-1.854h4.404c1.97 0 2.665.058 3.244.29 1.101.521 1.738 1.564 1.738 2.78 0 1.16-.347 1.739-1.506 2.318 1.217.405 2.028 1.564 1.912 2.839 0 1.911-1.507 3.186-3.708 3.186h-6.084v-1.854h.87v-7.705h-.87zm134.363-.072a.386.386 0 0 0 .145-.054.29.29 0 0 0 .099-.108.36.36 0 0 0 .037-.174.352.352 0 0 0 -.083-.242c-.055-.063-.143-.094-.266-.094h-.65v.685h.545c.06 0 .118-.004.173-.013zm-.055-.892c.187 0 .334.045.44.137a.475.475 0 0 1 .157.377c0 .12-.027.224-.08.314a.418.418 0 0 1 -.26.185v.005c.056.011.102.03.138.055a.301.301 0 0 1 .085.093.41.41 0 0 1 .047.12 1.255 1.255 0 0 1 .032.283c.002.05.007.098.014.146a.838.838 0 0 0 .032.136.33.33 0 0 0 .062.114h-.292a.165.165 0 0 1 -.038-.082.792.792 0 0 1 -.012-.118l-.006-.139a1.518 1.518 0 0 0 -.044-.282.32.32 0 0 0 -.052-.112.256.256 0 0 0 -.093-.077.346.346 0 0 0 -.155-.03h-.638v.84h-.262v-1.965zm-.19-.543a1.595 1.595 0 0 0 0 3.189 1.596 1.596 0 0 0 0-3.189zm0 3.5a1.907 1.907 0 0 1 -1.905-1.906c0-1.05.854-1.905 1.905-1.905 1.05 0 1.905.855 1.905 1.905s-.855 1.905-1.905 1.905zm-3.393 3.883a1.832 1.832 0 0 0 -1.826-1.826h-.061c-1.035 0-1.887.791-2.07 1.765zm2.375 2.68c-.426 2.008-2.07 3.226-4.262 3.226-2.557 0-4.444-2.01-4.444-4.81s1.887-4.81 4.444-4.81c1.4 0 2.74.67 3.531 1.888.61 1.035.974 2.192.914 3.41h-6.576c.244 2.374 1.766 2.496 2.192 2.496.852.06 1.644-.548 1.887-1.34zm-12.542-4.69c.609-1.157 1.278-1.644 2.313-1.644.366 0 .67.061 1.035.122v2.131c-.365-.06-.73-.122-1.095-.122-1.157-.06-2.131.792-2.192 1.888v3.53h1.096v1.767h-4.262v-1.766h.913v-5.601h-.913v-1.765h3.105v1.461zm-7.3 3.41c-2.131.182-3.532.365-3.532 1.644 0 .73.61 1.217 1.523 1.217a2.07 2.07 0 0 0 2.07-1.948v-.913zm2.192 2.557h.791v1.765h-2.862v-1.095c-.67.852-1.704 1.278-2.8 1.278-1.827 0-3.227-1.218-3.227-2.861 0-2.68 3.044-2.984 5.967-3.227 0-1.4-.488-1.827-1.644-1.827-1.157 0-1.583.548-1.644 1.4v.061l-2.192-.06c.122-1.827 1.583-2.984 3.775-2.984 2.557 0 3.896 1.157 3.896 3.227zm-22.04-7.427h3.653v1.766h-.914l1.279 5.418 1.522-7.184h2.375l1.522 7.063 1.217-5.297h-.913v-1.766h3.653v1.766h-.791l-1.949 7.367h-2.435l-1.522-6.332-1.461 6.332h-2.436l-2.009-7.367h-.791zm-7.063-2.862h2.923l3.348 10.107h.913v1.948h-2.74l-.79-2.617h-4.263l-.791 2.617h-2.8v-1.948h.913zm1.461 2.253-1.582 5.358h3.165zm-8.402 4.426c0-.853-.305-1.645-.915-2.316-.427-.366-.975-.61-1.524-.549a2.673 2.673 0 0 0 -2.438 1.951c-.061.305-.183.61-.183.914zm1.34 2.805c-.121.548-.365.975-.73 1.402a3.8 3.8 0 0 1 -2.927 1.341c-2.5 0-4.267-1.95-4.267-4.755 0-2.682 1.768-4.755 4.023-4.755 2.256 0 4.085 1.768 4.085 4.999h-6.646c.122 1.341.426 2.134 1.036 2.743.488.427 1.097.67 1.707.67 1.036 0 1.707-.487 2.195-1.584zm-12.54-9.918h2.651v11.653h1.233v1.11h-3.946v-1.11h1.357v-10.605h-1.297v-1.048zm-7.383 8.541a2.867 2.867 0 0 0 2.626 2.871c1.588 0 2.565-1.405 2.565-3.665s-1.038-3.603-2.565-3.603c-1.344 0-2.687 1.466-2.687 2.81l.06 1.587zm-2.565-8.733h2.565v5.313c.366-.672 1.404-2.015 2.992-2.015 2.077 0 3.665 2.137 3.665 4.825 0 2.504-1.71 4.641-3.665 4.641-1.649 0-2.443-1.099-2.992-1.832v1.71h-2.629v-1.099h1.283v-10.444h-1.221v-1.1zm-12.65 5.128c.436-.623 1.246-1.932 2.99-1.932 1.247 0 1.932.623 2.181 1.932.25-.436.499-.81.873-1.184.56-.498 1.246-.81 1.994-.81 1.433 0 2.243.935 2.243 2.555v5.92h1.308v1.12h-2.617v-6.541c0-1.308-.436-1.931-1.37-1.931-1.62 0-2.493 1.931-2.493 2.617v4.735h1.37v1.122h-2.74v-6.73c0-1.184-.437-1.682-1.372-1.682-1.433 0-2.492 1.807-2.492 2.68v4.672h1.37v1.122h-4.05v-1.122h1.372v-7.227h-1.371v-1.123h2.741zm-6.656 2.723-.881.126c-2.893.377-3.837.88-3.837 2.075.063 1.07.944 1.824 1.95 1.824 1.384-.063 2.579-1.069 2.768-2.452zm2.702 4.907h-2.704v-1.7c-.63 1.195-1.887 1.887-3.208 1.887-1.573.125-2.956-1.133-3.082-2.705v-.189c0-1.824 1.572-2.704 5.346-3.081l.88-.063v-.944c0-1.07-.817-1.76-2.138-1.76-1.32 0-2.012.44-2.264 1.697h-1.447a3.346 3.346 0 0 1 1.07-1.95c.691-.566 1.635-.817 2.515-.817 1.95 0 3.585.88 3.585 3.27v5.22h1.321l.126 1.133zm-14.202-6.141h4.11v5.837h-1.308v-1.846a5.334 5.334 0 0 1 -.894 1.132c-.774.655-1.727 1.012-2.68 1.012-2.74 0-4.885-2.68-4.885-6.135s2.145-6.196 4.825-6.196c1.49-.06 2.8.775 3.515 2.026v-1.849h1.25v3.753h-1.31a3.926 3.926 0 0 0 -.655-1.43c-.596-.774-1.549-1.25-2.502-1.31-1.43 0-3.574 1.25-3.574 4.885 0 2.859 1.549 4.944 3.574 4.944 1.609-.06 2.92-1.251 3.217-2.8.06-.298.06-.655.06-.953h-2.8l.06-1.072zm-10.247.491c0-.985-.811-1.738-1.738-1.738h-.058c-.985 0-1.796.753-1.97 1.68zm2.201 2.55c-.405 1.91-1.97 3.07-4.055 3.07-2.433 0-4.229-1.912-4.229-4.577s1.796-4.577 4.23-4.577c1.332 0 2.606.637 3.36 1.796.578.985.926 2.086.868 3.244h-6.256c.231 2.26 1.68 2.375 2.085 2.375.811.058 1.564-.52 1.796-1.274l2.201-.058z" fill="#999" fill-rule="evenodd"/></svg>