<svg xmlns="http://www.w3.org/2000/svg" width="59" height="62" viewBox="0 0 59 62"><g fill="none" fill-rule="evenodd"><path fill="#000" d="M0 0h59v62H0z" opacity="0"/><path fill="#FFF" fill-rule="nonzero" d="M18.714 5.5c2.006 0 3.939.16 5.738.462l.713.128c6.11 1.174 10.524 4.01 10.754 7.689h.01v3.534h-.012c-.058.906-.34 1.78-.815 2.607l-.043-.083a5.07 5.07 0 0 1 .608 2.09h.009v3.534h-.011a5.934 5.934 0 0 1-.66 2.336l.054-.085c.332.62.537 1.274.598 1.96a15.79 15.79 0 0 0-1.52 1.131l.08-.551a3.926 3.926 0 0 0-.115-1.085l-.017.018c-2.71 3.287-8.597 5.565-15.421 5.565-6.825 0-12.71-2.278-15.421-5.565l.024-.11c-.122.48-.162.937-.128 1.375l.068.48c.075.36.2.705.371 1.034 1.784 3.058 7.862 5.31 15.086 5.31 4.936 0 9.337-1.052 12.199-2.693a15.883 15.883 0 0 0-2.266 6.23c-2.795 1.142-6.226 1.814-9.933 1.814-6.825 0-12.71-2.278-15.421-5.565l.024-.11c-.122.48-.162.938-.128 1.375l.068.48c.075.36.2.705.371 1.034 1.784 3.058 7.862 5.31 15.086 5.31 3.706 0 7.11-.593 9.788-1.583.053 1.676.365 3.288.896 4.796-2.92 1.337-6.637 2.138-10.684 2.138-9.187 0-16.673-4.127-17.001-9.288H1.65v-3.534h.01a5.052 5.052 0 0 1 .608-2.091l.05.08a5.932 5.932 0 0 1-.656-2.33H1.65v-3.534h.01a5.052 5.052 0 0 1 .608-2.091l.05.079a5.932 5.932 0 0 1-.656-2.33H1.65v-3.534h.01a5.052 5.052 0 0 1 .608-2.09l.112.176-.156-.277a5.91 5.91 0 0 1-.714-2.423H1.5v-3.534h.01c.23-3.68 4.643-6.515 10.754-7.69l.712-.127c1.8-.302 3.732-.462 5.738-.462zM3.264 21.215l.003-.015c-.122.48-.162.937-.128 1.375l.068.48c.075.36.2.705.371 1.034 1.784 3.058 7.862 5.31 15.086 5.31 6.926 0 12.8-2.07 14.843-4.937.282-.423.488-.87.604-1.337l.105-.749a3.927 3.927 0 0 0-.115-1.086c-2.834 3.15-8.66 5.311-15.387 5.311-6.78 0-12.644-2.195-15.45-5.386zm15.45-14.302c-7.786 0-14.256 2.555-15.56 5.918l.068-.08a4.306 4.306 0 0 0-.217 1.675l.07.48a4 4 0 0 0 .374 1.035c1.805 3.058 7.956 5.31 15.265 5.31 7.009 0 12.952-2.071 15.02-4.937a4.23 4.23 0 0 0 .61-1.338l.107-.748a4.017 4.017 0 0 0-.224-1.454l.048.057c-1.304-3.363-7.775-5.918-15.56-5.918z"/><path fill="#06d1ec" d="M43.983 29.499c7.187 0 13.014 5.827 13.014 13.014 0 7.188-5.827 13.015-13.014 13.015-7.188 0-13.015-5.827-13.015-13.015 0-7.187 5.827-13.014 13.015-13.014zm5.716 11.604H38.266a1.41 1.41 0 0 0-.135 2.815l.135.006H49.7a1.41 1.41 0 0 0 .135-2.815l-.135-.006z"/></g></svg>