<svg xmlns="http://www.w3.org/2000/svg" width="59" height="62" viewBox="0 0 59 62"><g fill="none" fill-rule="evenodd"><path fill="#000" d="M0 0h59v62H0z" opacity="0"/><path fill="#FFF" d="M24.652 50.808c2.738.125 5.47.144 8.196.05a4.137 4.137 0 0 1-8.187.017l-.01-.067zM8.987 43.235c14.814 2.978 28.02 2.79 40 0 1.195-.5 1.79 3.14 0 3.668-13.196 2.69-26.532 2.525-40 0-1.217-.367-1.412-3.948 0-3.668z"/><path fill="#FFF" d="M29.66 7.5v4.777c.455.011.9.031 1.335.06l.673.052a10.463 10.463 0 0 0-.906 4.271c0 5.8 4.701 10.5 10.5 10.5 1.326 0 2.593-.245 3.761-.693v18.827c-9.944 1.798-20.723 1.842-32.543-.17V26.145c0-8.473 4.547-13.066 13.643-13.78V7.5h3.537z"/><path fill="#06d1ec" d="M41.262 8.247a8.413 8.413 0 1 1 0 16.826 8.413 8.413 0 0 1 0-16.826zm0 3.498c-.627 0-1.143.476-1.205 1.087l-.006.124v7.408a1.211 1.211 0 0 0 2.416.124l.007-.124v-7.408c0-.67-.543-1.211-1.212-1.211z"/></g></svg>