<svg xmlns="http://www.w3.org/2000/svg" width="59" height="62" viewBox="0 0 59 62"><g fill="none" fill-rule="evenodd"><path fill="#000" d="M0 0h59v62H0z" opacity="0"/><g transform="translate(1.5 4.5)"><path fill="#FFF" d="M11.87 24.768a16.03 16.03 0 0 0 12.154 5.556c4.732 0 8.987-2.046 11.927-5.302 1.94 1.259 3.738 2.683 5.322 4.353-5.12 1.673-8.82 6.488-8.82 12.168 0 1.882.407 3.67 1.136 5.279H.01c-.185-8.182 2.49-15.79 11.862-22.054z"/><circle cx="24.024" cy="13.556" r="13.556" fill="#FFF"/><path fill="#06d1ec" d="M45.254 30.876c5.89 0 10.667 4.776 10.667 10.667 0 5.89-4.776 10.667-10.667 10.667s-10.667-4.776-10.667-10.667 4.776-10.667 10.667-10.667zm5.841 9.51H39.412V42.7h11.683v-2.313z"/></g></g></svg>