<svg height="62" viewBox="0 0 59 62" width="59" xmlns="http://www.w3.org/2000/svg"><g fill="none" fill-rule="evenodd"><path d="m0 0h59v62h-59z" fill="#000" opacity="0"/><g transform="translate(9.5 8.5)"><path d="m16.482 21.506c0 1.636-2.89 7.52-3.02 7.81-1.968 3.212-3.007 6.03-3.118 8.452h18.686c-.16-3.476-1.953-5.97-2.99-8.452-1.976-4.116-2.964-6.72-2.964-7.81h-6.593z" fill="#06d1ec"/><g fill="#fff"><rect height="3.728" rx="1.864" width="39.373"/><rect height="3.728" rx="1.864" width="39.373" y="40.523"/><path d="m5.532 3.728.028.627c.183 4.057 1.076 6.834 2.856 9.968l.308.529c.331.553 1.165 1.94 1.474 2.487l.04.072c1.076 1.939 1.578 3.516 1.578 5.44 0 1.893-.48 3.369-1.533 5.151l-.171.284c-.27.44-1.31 2.029-1.523 2.37-1.842 2.942-2.792 5.633-3.01 9.712l-.019.387-.025.626-1.49-.043.025-.627c.18-4.36 1.14-7.265 3.02-10.349l.275-.44c.337-.527 1.19-1.834 1.421-2.21 1.071-1.748 1.539-3.092 1.539-4.86 0-1.72-.448-3.126-1.438-4.91l-.26-.453c-.464-.791-1.26-2.112-1.37-2.3-1.922-3.303-2.924-6.212-3.165-10.367l-.022-.42-.028-.627 1.49-.047zm28.308 0-.028.627c-.182 4.057-1.076 6.834-2.856 9.968l-.308.529-1.027 1.722-.358.612-.128.225c-1.076 1.939-1.578 3.516-1.578 5.44 0 1.893.48 3.369 1.533 5.151l.235.387 1.459 2.267c1.842 2.942 2.792 5.633 3.01 9.712l.044 1.013 1.49-.043-.025-.627c-.18-4.36-1.14-7.265-3.02-10.349l-.276-.44-1.42-2.21c-1.072-1.748-1.539-3.092-1.539-4.86 0-1.72.448-3.126 1.438-4.91l.26-.453 1.369-2.3c1.923-3.303 2.925-6.212 3.166-10.367l.05-1.047-1.49-.047z" fill-rule="nonzero"/></g></g></g></svg>