<!-- Created with Inkscape (http://www.inkscape.org/) -->
<svg focusable="false" data-prefix="fas" data-icon="user-secret" class="svg-inline--fa fa-user-secret fa-w-14 " role="img" xmlns="http://www.w3.org/2000/svg" viewBox="0 0 32 32">
    <path fill="rgb(193, 195, 207)" d="M30.072 7.6l-6.461-6.461c-0.122-0.124-0.293-0.201-0.481-0.201-0.373 0-0.675 0.302-0.675 0.675 0 0 0 0 0 0v-0 1.974h-11.415c-0.031-0-0.068-0.001-0.105-0.001-4.392 0-7.989 3.406-8.293 7.721l-0.002 0.026c-0.004 0.099-0.007 0.214-0.007 0.331 0 1.319 0.315 2.564 0.875 3.664l-0.021-0.046c0.156 0.279 0.449 0.465 0.786 0.465s0.63-0.186 0.784-0.46l0.002-0.005c1.416-2.457 4.029-4.085 7.021-4.085 0.002 0 0.005 0 0.008 0h10.374v3.367c0.044 0.359 0.346 0.634 0.713 0.634 0.168 0 0.322-0.058 0.444-0.154l-0.002 0.001 6.461-6.461c0.119-0.128 0.191-0.299 0.191-0.488 0-0.192-0.076-0.367-0.199-0.496l0 0z"></path>
    <path fill="rgb(193, 195, 207)" d="M1.928 24.4l6.461 6.461c0.122 0.12 0.289 0.195 0.474 0.195 0.365 0 0.663-0.29 0.675-0.653l0-0.001v-1.974h11.422c0.031 0 0.068 0.001 0.105 0.001 4.392 0 7.989-3.406 8.293-7.721l0.002-0.026c0.005-0.103 0.007-0.223 0.007-0.344 0-1.319-0.316-2.565-0.876-3.665l0.021 0.046c-0.156-0.279-0.449-0.465-0.786-0.465s-0.63 0.186-0.784 0.46l-0.002 0.005c-1.416 2.457-4.029 4.085-7.021 4.085-0.003 0-0.005 0-0.008 0h-10.374v-3.367c-0.044-0.359-0.346-0.634-0.713-0.634-0.168 0-0.322 0.058-0.444 0.154l0.002-0.001-6.461 6.461c-0.119 0.128-0.191 0.299-0.191 0.488 0 0.192 0.076 0.367 0.199 0.496l-0-0z"></path>
</svg>