<!-- Created with Inkscape (http://www.inkscape.org/) -->
<svg focusable="false" data-prefix="fas" data-icon="user-secret" class="svg-inline--fa fa-user-secret fa-w-14 " role="img" xmlns="http://www.w3.org/2000/svg" viewBox="0 0 32 32">
    <path fill="rgb(193, 195, 207)" d="M17.57 3.78c-0.467-0.067-1.011-0.109-1.563-0.115l-0.007-0c-0.559 0.006-1.103 0.048-1.636 0.123l0.066-0.008-2.64-3.47c-0.146-0.18-0.367-0.295-0.616-0.295-0.141 0-0.274 0.037-0.388 0.102l0.004-0.002-5.56 3.29c-0.242 0.148-0.402 0.411-0.402 0.711 0 0.104 0.019 0.203 0.054 0.295l-0.002-0.006 1.62 4.095c-0.61 0.802-1.137 1.719-1.54 2.699l-0.029 0.081-4.255 0.625c-0.385 0.065-0.675 0.396-0.675 0.794 0 0.005 0 0.011 0 0.016v-0.001 6.58c-0 0.004-0 0.010-0 0.015 0 0.398 0.29 0.728 0.671 0.79l0.005 0.001 4.235 0.625c0.448 1.059 0.981 1.973 1.613 2.807l-0.023-0.032-1.62 4.1c-0.037 0.089-0.058 0.192-0.058 0.3 0 0.299 0.163 0.559 0.404 0.698l0.004 0.002 5.54 3.29c0.11 0.063 0.242 0.1 0.383 0.1 0.25 0 0.472-0.116 0.616-0.298l0.001-0.002 2.64-3.465c0.467 0.068 1.011 0.11 1.564 0.115l0.006 0c0.559-0.005 1.103-0.047 1.636-0.123l-0.066 0.008 2.64 3.47c0.146 0.18 0.367 0.295 0.616 0.295 0.141 0 0.274-0.037 0.388-0.102l-0.004 0.002 5.58-3.29c0.242-0.148 0.402-0.411 0.402-0.711 0-0.104-0.019-0.203-0.054-0.295l0.002 0.006-1.62-4.1c0.61-0.802 1.137-1.718 1.54-2.699l0.030-0.081 4.235-0.625c0.394-0.054 0.695-0.388 0.695-0.793 0-0.002 0-0.005-0-0.007v0-6.58c0-0.005 0-0.010 0-0.016 0-0.399-0.29-0.73-0.67-0.794l-0.005-0.001-4.235-0.625c-0.446-1.061-0.979-1.977-1.613-2.812l0.023 0.032 1.6-4.095c0.037-0.089 0.058-0.192 0.058-0.3 0-0.299-0.163-0.559-0.404-0.698l-0.004-0.002-5.52-3.29c-0.112-0.067-0.247-0.107-0.391-0.107-0.248 0-0.468 0.118-0.608 0.3l-0.001 0.002zM21.6 16c0 0.023 0 0.049 0 0.076 0 3.11-2.497 5.637-5.596 5.684l-0.004 0c-3.032-0.184-5.421-2.688-5.421-5.75s2.389-5.566 5.405-5.749l0.016-0.001c3.103 0.048 5.6 2.574 5.6 5.684 0 0.020-0 0.039-0 0.059l0-0.003z"></path>
</svg>