<?xml version="1.0" encoding="iso-8859-1"?>
<!-- Uploaded to: SVG Repo, www.svgrepo.com, Generator: SVG Repo Mixer Tools -->
<svg height="800px" width="800px" version="1.1" id="Layer_1" xmlns="http://www.w3.org/2000/svg" xmlns:xlink="http://www.w3.org/1999/xlink"
	 viewBox="0 0 496.2 496.2" xml:space="preserve">
<path style="fill:#ff0000;" d="M496.2,248.1C496.2,111.1,385.1,0,248.1,0S0,111.1,0,248.1s111.1,248.1,248.1,248.1
	S496.2,385.1,496.2,248.1z"/>
	<path style="fill:#fff;" d="M277.719,384c-34.656,0-65.891-13.734-86.094-39.234c-12.188-14.109-20.562-33.172-24-56.375H143.25V264.75h21.344
		c0-1.906,0-3.781,0-5.719c0-4.938,0.375-9.891,0.75-14.078H143.25v-23.609h25.531c4.562-23.625,14.859-43.062,28.562-57.906
		C217.906,140.953,245.719,128,279.656,128c22.844,0,41.906,5.719,54.438,11.812l-9.5,35.047c-9.906-4.953-25.5-9.906-42.656-9.906
		c-19.062,0-35.812,6.859-48.406,20.953c-7.969,8.375-13.688,20.938-16.75,35.438h99.781v23.609H212.203
		c-0.766,4.188-0.766,8.766-0.766,13.719c0,2.297,0,3.812,0,6.078h105.125v23.641H215.625c2.688,15.984,8.391,28.578,16.375,36.953
		c12.969,14.094,31.25,20.578,51.062,20.578c18.656,0,36.188-6.484,44.969-11.047L336,368.781
		C323.438,376.375,302.125,384,277.719,384z"/>
</svg>